<svg xmlns="http://www.w3.org/2000/svg" xmlns:xlink="http://www.w3.org/1999/xlink" width="116" height="116" viewBox="0 0 116 116"><defs><clipPath id="a"><rect width="116" height="116" transform="translate(903 1752)" fill="#65617d"/></clipPath></defs><g transform="translate(-903 -1752)" clip-path="url(#a)"><path d="M65.467,37.658a10.577,10.577,0,0,0,2.023-6.619A9.742,9.742,0,0,0,57.9,21.472H48.656c1.149-2.289,2.728-5.129,2.728-9.2C51.385,4.57,48.313,0,40.456,0,36.5,0,35.035,5,34.283,8.862c-.449,2.308-.873,4.489-2.178,5.793C29,17.762,24.254,25.309,21.4,26.841a5.411,5.411,0,0,1-1.059.293,4.213,4.213,0,0,0-3.473-1.825H4.218A4.218,4.218,0,0,0,0,29.527V63.272A4.218,4.218,0,0,0,4.218,67.49H16.872a4.218,4.218,0,0,0,4.218-4.218V62.12c4.283,0,13.272,5.371,23.391,5.368.726,0,4.963,0,5.406,0,7.814,0,12.161-4.73,11.908-11.836a10.945,10.945,0,0,0,2.4-8.846A12.322,12.322,0,0,0,65.467,37.658ZM4.218,63.272V29.527H16.872V63.272ZM60.111,36.428c2.107,1.535,2.107,7.863-.739,9.315,1.782,3,.178,7.015-1.979,8.172,1.093,6.926-2.5,9.307-7.541,9.356-.437,0-4.91,0-5.368,0-9.613,0-17.761-5.368-23.391-5.368V31.059c4.971,0,9.531-8.955,14-13.421C39.114,13.612,37.772,6.9,40.456,4.217c6.711,0,6.711,4.682,6.711,8.053,0,5.561-4.026,8.053-4.026,13.421H57.9a5.545,5.545,0,0,1,5.368,5.368c.013,2.684-1.055,4.795-3.161,5.368Zm-46.4,20.517a3.164,3.164,0,1,1-3.164-3.164A3.164,3.164,0,0,1,13.709,56.945Z" transform="translate(927 1776)" fill="#65617d"/></g></svg>