<svg xmlns="http://www.w3.org/2000/svg" xmlns:xlink="http://www.w3.org/1999/xlink" width="116" height="116" viewBox="0 0 116 116"><defs><clipPath id="a"><rect width="116" height="116" transform="translate(1335 1752)" fill="#3acc6c"/></clipPath></defs><g transform="translate(-1335 -1752)" clip-path="url(#a)"><path d="M33.745,1.871A33.745,33.745,0,1,0,67.49,35.616,33.739,33.739,0,0,0,33.745,1.871Zm0,63.136A29.391,29.391,0,1,1,63.136,35.616,29.425,29.425,0,0,1,33.745,65.007ZM46.018,45.114a15.988,15.988,0,0,1-24.547,0A2.173,2.173,0,1,0,18.138,47.9a20.324,20.324,0,0,0,31.228-.014,2.163,2.163,0,0,0-.272-3.062,2.195,2.195,0,0,0-3.075.286ZM22.86,33.439a4.354,4.354,0,1,0-4.354-4.354A4.35,4.35,0,0,0,22.86,33.439Zm21.771,0a4.354,4.354,0,1,0-4.354-4.354A4.35,4.35,0,0,0,44.63,33.439Z" transform="translate(1359 1774.129)" fill="#3acc6c"/></g></svg>