<svg xmlns="http://www.w3.org/2000/svg" xmlns:xlink="http://www.w3.org/1999/xlink" width="116" height="116" viewBox="0 0 116 116"><defs><clipPath id="a"><rect width="116" height="116" transform="translate(470 1752)" fill="#8888fa"/></clipPath></defs><g transform="translate(-470 -1752)" clip-path="url(#a)"><path d="M39.016,21.09H23.8L29.42,3.981A3.176,3.176,0,0,0,26.362,0H7.381A3.168,3.168,0,0,0,4.243,2.742L.025,34.377a3.169,3.169,0,0,0,3.137,3.585H18.809L12.732,63.6a3.16,3.16,0,0,0,5.813,2.307l23.2-40.071A3.157,3.157,0,0,0,39.016,21.09Zm-20.523,36.5,4.416-18.665,1.226-5.193H4.362L8.3,4.218H24.9L19.8,19.772l-1.819,5.536H37.183Z" transform="translate(506.912 1776.256)" fill="#8888fa"/></g></svg>