<svg xmlns="http://www.w3.org/2000/svg" xmlns:xlink="http://www.w3.org/1999/xlink" width="590" height="777" viewBox="0 0 590 777"><defs><style>.a{fill:#fff;}.b{fill:#8888fa;}.c{fill:#066666;}.d{fill:#3acc6c;}.e{filter:url(#a);}</style><filter id="a" x="0" y="0" width="590" height="777" filterUnits="userSpaceOnUse"><feOffset dy="12" input="SourceAlpha"/><feGaussianBlur stdDeviation="20" result="b"/><feFlood flood-opacity="0.114"/><feComposite operator="in" in2="b"/><feComposite in="SourceGraphic"/></filter></defs><g transform="translate(-447 -7957)"><g transform="translate(0 14)"><g class="e" transform="matrix(1, 0, 0, 1, 447, 7943)"><rect class="a" width="470" height="657" rx="40" transform="translate(60 48)"/></g><rect class="b" width="470" height="274" rx="40" transform="translate(507 7991)"/><path class="a" d="M13.284-33.912,3.42,6.156H.252L10.08-33.912ZM40.356-20.088a7.321,7.321,0,0,1,5.562,2.214q2.106,2.214,2.106,6.39V0H44.748V-11.2a6.371,6.371,0,0,0-1.422-4.464,5.04,5.04,0,0,0-3.906-1.548,5.367,5.367,0,0,0-4.158,1.71A7.2,7.2,0,0,0,33.7-10.476V0H30.42V-11.2a6.32,6.32,0,0,0-1.44-4.464,5.053,5.053,0,0,0-3.888-1.548A5.41,5.41,0,0,0,20.9-15.5a7.2,7.2,0,0,0-1.566,5.022V0H16.056V-19.764h3.276v4.5a6.421,6.421,0,0,1,2.574-3.582,7.485,7.485,0,0,1,4.266-1.242,7.515,7.515,0,0,1,4.374,1.278,6.954,6.954,0,0,1,2.646,3.762,7.144,7.144,0,0,1,2.772-3.726A7.662,7.662,0,0,1,40.356-20.088Zm20.844.072a8.121,8.121,0,0,1,4.878,1.44,7.5,7.5,0,0,1,2.79,3.852v-5.04h3.276V0H68.868V-5.04a7.5,7.5,0,0,1-2.79,3.852A8.121,8.121,0,0,1,61.2.252,8.958,8.958,0,0,1,56.52-.972,8.466,8.466,0,0,1,53.3-4.482a11.668,11.668,0,0,1-1.17-5.382,11.78,11.78,0,0,1,1.17-5.4,8.442,8.442,0,0,1,3.222-3.528A8.958,8.958,0,0,1,61.2-20.016Zm.936,2.916a6.345,6.345,0,0,0-4.842,1.926,7.426,7.426,0,0,0-1.818,5.31,7.426,7.426,0,0,0,1.818,5.31,6.345,6.345,0,0,0,4.842,1.926,6.722,6.722,0,0,0,3.474-.9A6.266,6.266,0,0,0,68-6.066a8.023,8.023,0,0,0,.864-3.8A8.131,8.131,0,0,0,68-13.68a6.119,6.119,0,0,0-2.394-2.538A6.829,6.829,0,0,0,62.136-17.1Zm23.328-2.916a8.121,8.121,0,0,1,4.878,1.44,7.505,7.505,0,0,1,2.79,3.852v-5.04h3.276V0H93.132V-5.04a7.505,7.505,0,0,1-2.79,3.852A8.121,8.121,0,0,1,85.464.252a8.958,8.958,0,0,1-4.68-1.224,8.466,8.466,0,0,1-3.222-3.51,11.668,11.668,0,0,1-1.17-5.382,11.78,11.78,0,0,1,1.17-5.4,8.442,8.442,0,0,1,3.222-3.528A8.958,8.958,0,0,1,85.464-20.016ZM86.4-17.1a6.345,6.345,0,0,0-4.842,1.926,7.426,7.426,0,0,0-1.818,5.31,7.426,7.426,0,0,0,1.818,5.31A6.345,6.345,0,0,0,86.4-2.628a6.722,6.722,0,0,0,3.474-.9,6.266,6.266,0,0,0,2.394-2.538,8.023,8.023,0,0,0,.864-3.8,8.131,8.131,0,0,0-.864-3.816,6.119,6.119,0,0,0-2.394-2.538A6.829,6.829,0,0,0,86.4-17.1Zm25.632-2.988a7.379,7.379,0,0,1,5.58,2.214q2.124,2.214,2.124,6.39V0H116.46V-11.2a6.314,6.314,0,0,0-1.512-4.536,5.405,5.405,0,0,0-4.1-1.584,5.611,5.611,0,0,0-4.32,1.746,7.232,7.232,0,0,0-1.62,5.094V0h-3.276V-19.764H104.9v4.68a6.733,6.733,0,0,1,2.682-3.708A7.775,7.775,0,0,1,112.032-20.088Zm20.844.072a8.121,8.121,0,0,1,4.878,1.44,7.5,7.5,0,0,1,2.79,3.852V-26.64h3.276V0h-3.276V-5.04a7.5,7.5,0,0,1-2.79,3.852,8.121,8.121,0,0,1-4.878,1.44A8.958,8.958,0,0,1,128.2-.972a8.466,8.466,0,0,1-3.222-3.51,11.668,11.668,0,0,1-1.17-5.382,11.78,11.78,0,0,1,1.17-5.4,8.442,8.442,0,0,1,3.222-3.528A8.958,8.958,0,0,1,132.876-20.016Zm.936,2.916a6.345,6.345,0,0,0-4.842,1.926,7.426,7.426,0,0,0-1.818,5.31,7.426,7.426,0,0,0,1.818,5.31,6.345,6.345,0,0,0,4.842,1.926,6.722,6.722,0,0,0,3.474-.9,6.266,6.266,0,0,0,2.394-2.538,8.023,8.023,0,0,0,.864-3.8,8.131,8.131,0,0,0-.864-3.816,6.119,6.119,0,0,0-2.394-2.538A6.829,6.829,0,0,0,133.812-17.1Z" transform="translate(689 8203)"/><path class="a" d="M15.48-4.464a7.276,7.276,0,0,0,4.194-1.188,6.971,6.971,0,0,0,2.574-3.24h5.364a11.577,11.577,0,0,1-4.14,6.66A12.415,12.415,0,0,1,15.588.216,12.029,12.029,0,0,1,7.9-2.268a11.872,11.872,0,0,1-4.194-6.66H.612V-11.3H3.348q-.072-.936-.072-1.4,0-.864.036-1.26H.612V-16.38h3.06a11.786,11.786,0,0,1,4.176-6.786,12.1,12.1,0,0,1,7.74-2.5,12.415,12.415,0,0,1,7.884,2.448,11.577,11.577,0,0,1,4.14,6.66H22.248a6.971,6.971,0,0,0-2.574-3.24,7.276,7.276,0,0,0-4.194-1.188,6.587,6.587,0,0,0-3.924,1.206,6.926,6.926,0,0,0-2.484,3.4h7.272v2.412H8.532q-.072.792-.072,1.26t.072,1.4h7.812v2.376H9.108a6.857,6.857,0,0,0,2.484,3.276A6.6,6.6,0,0,0,15.48-4.464Z" transform="translate(567 8159)"/><path class="c" d="M.312,10.12V8.08H5.16V25h-2.3V10.12Zm7.944,6.312A12.576,12.576,0,0,0,9.6,22.792q1.344,2.28,4.656,2.28t4.668-2.28a12.484,12.484,0,0,0,1.356-6.36,12.371,12.371,0,0,0-1.356-6.312q-1.356-2.28-4.668-2.28T9.6,10.108A12.45,12.45,0,0,0,8.256,16.432Zm9.864,0a17.078,17.078,0,0,1-.3,3.492,4.38,4.38,0,0,1-1.14,2.244,3.282,3.282,0,0,1-2.424.84,3.247,3.247,0,0,1-2.4-.84,4.38,4.38,0,0,1-1.14-2.244,17.078,17.078,0,0,1-.3-3.492,16.755,16.755,0,0,1,.3-3.456,4.3,4.3,0,0,1,1.14-2.22,3.275,3.275,0,0,1,2.4-.828,3.31,3.31,0,0,1,2.424.828,4.3,4.3,0,0,1,1.14,2.22A16.755,16.755,0,0,1,18.12,16.432Zm18.864-8.52A8.175,8.175,0,0,1,41.94,9.376a7.121,7.121,0,0,1,2.7,3.984h-2.3a5.176,5.176,0,0,0-2-2.472,5.852,5.852,0,0,0-3.324-.936,6,6,0,0,0-3.1.8,5.612,5.612,0,0,0-2.148,2.292,7.447,7.447,0,0,0-.78,3.5,7.535,7.535,0,0,0,.792,3.564,5.6,5.6,0,0,0,2.2,2.3,6.38,6.38,0,0,0,3.228.8,6.111,6.111,0,0,0,2.856-.672A5.529,5.529,0,0,0,42.18,20.6a6.658,6.658,0,0,0,1-3.012H36.528V15.952h8.5v2.016a8.4,8.4,0,0,1-1.248,3.648,7.486,7.486,0,0,1-2.784,2.592,8.154,8.154,0,0,1-3.984.96,8.415,8.415,0,0,1-4.32-1.092,7.591,7.591,0,0,1-2.916-3.048,9.359,9.359,0,0,1-1.044-4.476,9.359,9.359,0,0,1,1.044-4.476,7.673,7.673,0,0,1,2.916-3.06A8.3,8.3,0,0,1,36.984,7.912ZM56.232,16.24a4.431,4.431,0,0,1,2.532,1.488,4.073,4.073,0,0,1,.972,2.712,4.214,4.214,0,0,1-1.4,3.312A5.936,5.936,0,0,1,54.264,25H47.976V8.08h6.192a5.8,5.8,0,0,1,3.864,1.128,3.857,3.857,0,0,1,1.32,3.1,3.88,3.88,0,0,1-.876,2.64A3.969,3.969,0,0,1,56.232,16.24ZM50.16,15.5h3.648a3.631,3.631,0,0,0,2.46-.744,2.625,2.625,0,0,0,.852-2.088,2.585,2.585,0,0,0-.84-2.04,3.786,3.786,0,0,0-2.568-.744H50.16Zm3.7,7.68a4.06,4.06,0,0,0,2.676-.792,2.747,2.747,0,0,0,.948-2.232,2.724,2.724,0,0,0-.972-2.22,4.117,4.117,0,0,0-2.7-.8H50.16v6.048Zm20.52-11.52a6.99,6.99,0,0,1,3.4.816,5.839,5.839,0,0,1,2.352,2.352,7.3,7.3,0,0,1,.852,3.6,7.235,7.235,0,0,1-.852,3.588,5.859,5.859,0,0,1-2.352,2.34,7.475,7.475,0,0,1-6.792,0,5.938,5.938,0,0,1-2.364-2.34,7.155,7.155,0,0,1-.864-3.588,7.222,7.222,0,0,1,.864-3.6,5.917,5.917,0,0,1,2.364-2.352A6.99,6.99,0,0,1,74.376,11.656Zm0,1.92A4.565,4.565,0,0,0,72.2,14.1a3.97,3.97,0,0,0-1.608,1.62,5.456,5.456,0,0,0-.612,2.7A5.4,5.4,0,0,0,70.6,21.1,3.97,3.97,0,0,0,72.2,22.72a4.731,4.731,0,0,0,4.344,0,3.97,3.97,0,0,0,1.608-1.62,5.4,5.4,0,0,0,.612-2.676,5.456,5.456,0,0,0-.612-2.7,3.97,3.97,0,0,0-1.608-1.62A4.565,4.565,0,0,0,74.376,13.576ZM91.1,11.656a5.972,5.972,0,0,1,3.12.816,5.628,5.628,0,0,1,2.148,2.352,7.853,7.853,0,0,1,.78,3.6,7.779,7.779,0,0,1-.78,3.588,5.644,5.644,0,0,1-2.148,2.34,5.972,5.972,0,0,1-3.12.816,5.367,5.367,0,0,1-3.252-.972,4.939,4.939,0,0,1-1.836-2.556v9.6H83.832V11.824h2.184v3.36a4.939,4.939,0,0,1,1.836-2.556A5.367,5.367,0,0,1,91.1,11.656ZM90.48,13.6a4.571,4.571,0,0,0-2.3.588,4.056,4.056,0,0,0-1.608,1.692,5.421,5.421,0,0,0-.576,2.544,5.349,5.349,0,0,0,.576,2.532,4.153,4.153,0,0,0,1.608,1.692,4.5,4.5,0,0,0,2.3.6,4.26,4.26,0,0,0,3.252-1.284,4.95,4.95,0,0,0,1.212-3.54,4.95,4.95,0,0,0-1.212-3.54A4.26,4.26,0,0,0,90.48,13.6Zm13.656-1.944a5.318,5.318,0,0,1,3.588,1.164,4.9,4.9,0,0,1,1.644,3.132H107.28a3.023,3.023,0,0,0-.972-1.932,3.165,3.165,0,0,0-2.22-.756,2.739,2.739,0,0,0-1.836.564,1.9,1.9,0,0,0-.66,1.524,1.574,1.574,0,0,0,.444,1.164,2.849,2.849,0,0,0,1.1.672,18.417,18.417,0,0,0,1.812.492,17.8,17.8,0,0,1,2.364.684,3.7,3.7,0,0,1,1.536,1.116,3.136,3.136,0,0,1,.636,2.064,3.243,3.243,0,0,1-1.212,2.616,4.887,4.887,0,0,1-3.228,1.008,6.183,6.183,0,0,1-3.84-1.128A4.5,4.5,0,0,1,99.456,20.9h2.112a2.75,2.75,0,0,0,1.044,1.944,3.767,3.767,0,0,0,2.436.744,2.532,2.532,0,0,0,1.764-.576,1.943,1.943,0,0,0,.636-1.512,1.654,1.654,0,0,0-.456-1.224,2.99,2.99,0,0,0-1.128-.7,16.5,16.5,0,0,0-1.848-.5,18.034,18.034,0,0,1-2.34-.672,3.586,3.586,0,0,1-1.488-1.068,2.99,2.99,0,0,1-.612-1.98,3.315,3.315,0,0,1,1.224-2.676A5.052,5.052,0,0,1,104.136,11.656ZM114.6,7.24V25h-2.184V7.24Zm8.9,4.416a5.414,5.414,0,0,1,3.252.96,5,5,0,0,1,1.86,2.568v-3.36H130.8V25h-2.184V21.64a5,5,0,0,1-1.86,2.568,5.414,5.414,0,0,1-3.252.96,5.972,5.972,0,0,1-3.12-.816,5.644,5.644,0,0,1-2.148-2.34,7.779,7.779,0,0,1-.78-3.588,7.853,7.853,0,0,1,.78-3.6,5.628,5.628,0,0,1,2.148-2.352A5.972,5.972,0,0,1,123.5,11.656Zm.624,1.944a4.23,4.23,0,0,0-3.228,1.284,4.95,4.95,0,0,0-1.212,3.54,4.95,4.95,0,0,0,1.212,3.54,4.23,4.23,0,0,0,3.228,1.284,4.481,4.481,0,0,0,2.316-.6,4.177,4.177,0,0,0,1.6-1.692,5.349,5.349,0,0,0,.576-2.532,5.421,5.421,0,0,0-.576-2.544,4.079,4.079,0,0,0-1.6-1.692A4.553,4.553,0,0,0,124.128,13.6Zm15.552-1.944a5.414,5.414,0,0,1,3.252.96,5,5,0,0,1,1.86,2.568v-3.36h2.184V25.216a6.687,6.687,0,0,1-.768,3.24,5.516,5.516,0,0,1-2.16,2.208,6.439,6.439,0,0,1-3.24.792,6.956,6.956,0,0,1-4.344-1.284,5.666,5.666,0,0,1-2.136-3.468h2.16a3.741,3.741,0,0,0,1.452,2.076,4.648,4.648,0,0,0,2.748.756,4.03,4.03,0,0,0,2.94-1.14,4.248,4.248,0,0,0,1.164-3.18V21.64a5,5,0,0,1-1.86,2.568,5.414,5.414,0,0,1-3.252.96,5.972,5.972,0,0,1-3.12-.816,5.644,5.644,0,0,1-2.148-2.34,7.779,7.779,0,0,1-.78-3.588,7.853,7.853,0,0,1,.78-3.6,5.628,5.628,0,0,1,2.148-2.352A5.972,5.972,0,0,1,139.68,11.656ZM140.3,13.6a4.23,4.23,0,0,0-3.228,1.284,4.95,4.95,0,0,0-1.212,3.54,4.95,4.95,0,0,0,1.212,3.54,4.23,4.23,0,0,0,3.228,1.284,4.481,4.481,0,0,0,2.316-.6,4.177,4.177,0,0,0,1.6-1.692,5.349,5.349,0,0,0,.576-2.532,5.421,5.421,0,0,0-.576-2.544,4.079,4.079,0,0,0-1.6-1.692A4.553,4.553,0,0,0,140.3,13.6Z" transform="translate(631 8331)"/><path class="c" d="M18.7,8.368V25H16.512V11.728L11.208,25H9.264L3.936,11.776V25H1.752V8.368H4.368l5.9,13.968L16.08,8.368ZM34.32,17.68a6.5,6.5,0,0,1-.1,1.2H23.688a4.618,4.618,0,0,0,1.284,3.384,4.19,4.19,0,0,0,2.964,1.128,4.284,4.284,0,0,0,2.652-.8A3.324,3.324,0,0,0,31.9,20.44h2.328a5.5,5.5,0,0,1-3.216,4.128,7.114,7.114,0,0,1-2.976.6,6.785,6.785,0,0,1-3.36-.816,5.766,5.766,0,0,1-2.292-2.34,7.4,7.4,0,0,1-.828-3.588,7.475,7.475,0,0,1,.828-3.6,5.748,5.748,0,0,1,2.292-2.352,6.785,6.785,0,0,1,3.36-.816,6.633,6.633,0,0,1,3.348.816,5.618,5.618,0,0,1,2.184,2.184A6.147,6.147,0,0,1,34.32,17.68Zm-2.208.144a4.483,4.483,0,0,0-.48-2.448,3.509,3.509,0,0,0-1.512-1.464,4.6,4.6,0,0,0-2.088-.48,4.322,4.322,0,0,0-3.024,1.116,4.5,4.5,0,0,0-1.32,3.276ZM43.464,23.08V25H41.832a4.19,4.19,0,0,1-3.012-.96,4.336,4.336,0,0,1-1-3.216v-7.1H35.856v-1.9h1.968V8.536h2.208v3.288H43.44v1.9H40.032v7.152a2.464,2.464,0,0,0,.468,1.74,2.253,2.253,0,0,0,1.62.468ZM57.48,7.624a6.325,6.325,0,0,1,2.808.576,4.1,4.1,0,0,1,1.776,1.584,4.372,4.372,0,0,1,.6,2.28,3.956,3.956,0,0,1-.924,2.664,4.036,4.036,0,0,1-2.7,1.3v.144a6.389,6.389,0,0,1,2.892,1.488,3.689,3.689,0,0,1,1.044,2.784,4.486,4.486,0,0,1-1.392,3.408,5.6,5.6,0,0,1-4.008,1.32,6.379,6.379,0,0,1-4.236-1.356,5.757,5.757,0,0,1-1.908-3.972h2.16A4.09,4.09,0,0,0,54.8,22.36a3.784,3.784,0,0,0,2.7.936,3.432,3.432,0,0,0,2.472-.828,2.842,2.842,0,0,0,.864-2.148A2.722,2.722,0,0,0,59.6,17.908a6.294,6.294,0,0,0-3.516-.828h-.576V15.256h.576q4.416,0,4.416-2.952a2.7,2.7,0,0,0-.816-2.064,3.161,3.161,0,0,0-2.256-.768,3.637,3.637,0,0,0-2.424.828,3.51,3.51,0,0,0-1.152,2.436H51.72A5.339,5.339,0,0,1,53.388,8.98,5.875,5.875,0,0,1,57.48,7.624Zm21.912,4.032a5.972,5.972,0,0,1,3.12.816,5.628,5.628,0,0,1,2.148,2.352,7.853,7.853,0,0,1,.78,3.6,7.779,7.779,0,0,1-.78,3.588,5.644,5.644,0,0,1-2.148,2.34,5.972,5.972,0,0,1-3.12.816A5.367,5.367,0,0,1,76.14,24.2,4.939,4.939,0,0,1,74.3,21.64v9.6H72.12V11.824H74.3v3.36a4.939,4.939,0,0,1,1.836-2.556A5.367,5.367,0,0,1,79.392,11.656ZM78.768,13.6a4.571,4.571,0,0,0-2.3.588,4.056,4.056,0,0,0-1.608,1.692,5.421,5.421,0,0,0-.576,2.544,5.349,5.349,0,0,0,.576,2.532,4.153,4.153,0,0,0,1.608,1.692,4.5,4.5,0,0,0,2.3.6,4.26,4.26,0,0,0,3.252-1.284,4.95,4.95,0,0,0,1.212-3.54,4.95,4.95,0,0,0-1.212-3.54A4.26,4.26,0,0,0,78.768,13.6Zm21.648,4.08a6.5,6.5,0,0,1-.1,1.2H89.784a4.618,4.618,0,0,0,1.284,3.384,4.19,4.19,0,0,0,2.964,1.128,4.284,4.284,0,0,0,2.652-.8,3.324,3.324,0,0,0,1.308-2.148h2.328A5.5,5.5,0,0,1,97.1,24.568a7.114,7.114,0,0,1-2.976.6,6.785,6.785,0,0,1-3.36-.816,5.766,5.766,0,0,1-2.292-2.34,7.4,7.4,0,0,1-.828-3.588,7.475,7.475,0,0,1,.828-3.6,5.748,5.748,0,0,1,2.292-2.352,6.785,6.785,0,0,1,3.36-.816,6.633,6.633,0,0,1,3.348.816,5.618,5.618,0,0,1,2.184,2.184A6.147,6.147,0,0,1,100.416,17.68Zm-2.208.144a4.483,4.483,0,0,0-.48-2.448,3.509,3.509,0,0,0-1.512-1.464,4.6,4.6,0,0,0-2.088-.48A4.322,4.322,0,0,0,91.1,14.548a4.5,4.5,0,0,0-1.32,3.276Zm7.248-3.336a4.846,4.846,0,0,1,1.9-2.124,5.635,5.635,0,0,1,2.976-.756v2.376h-.672a4.667,4.667,0,0,0-3.024.948,3.8,3.8,0,0,0-1.176,3.132V25h-2.184V11.824h2.184Zm11.16-2.832A5.318,5.318,0,0,1,120.2,12.82a4.9,4.9,0,0,1,1.644,3.132H119.76a3.023,3.023,0,0,0-.972-1.932,3.165,3.165,0,0,0-2.22-.756,2.739,2.739,0,0,0-1.836.564,1.9,1.9,0,0,0-.66,1.524,1.574,1.574,0,0,0,.444,1.164,2.849,2.849,0,0,0,1.1.672,18.417,18.417,0,0,0,1.812.492,17.8,17.8,0,0,1,2.364.684,3.7,3.7,0,0,1,1.536,1.116,3.136,3.136,0,0,1,.636,2.064,3.243,3.243,0,0,1-1.212,2.616,4.887,4.887,0,0,1-3.228,1.008,6.183,6.183,0,0,1-3.84-1.128,4.5,4.5,0,0,1-1.752-3.144h2.112a2.75,2.75,0,0,0,1.044,1.944,3.767,3.767,0,0,0,2.436.744,2.532,2.532,0,0,0,1.764-.576,1.943,1.943,0,0,0,.636-1.512,1.654,1.654,0,0,0-.456-1.224,2.99,2.99,0,0,0-1.128-.7,16.5,16.5,0,0,0-1.848-.5,18.034,18.034,0,0,1-2.34-.672,3.586,3.586,0,0,1-1.488-1.068,2.99,2.99,0,0,1-.612-1.98,3.315,3.315,0,0,1,1.224-2.676A5.052,5.052,0,0,1,116.616,11.656Zm14.256,0a6.99,6.99,0,0,1,3.4.816,5.839,5.839,0,0,1,2.352,2.352,7.3,7.3,0,0,1,.852,3.6,7.235,7.235,0,0,1-.852,3.588,5.859,5.859,0,0,1-2.352,2.34,7.475,7.475,0,0,1-6.792,0,5.938,5.938,0,0,1-2.364-2.34,7.155,7.155,0,0,1-.864-3.588,7.222,7.222,0,0,1,.864-3.6,5.917,5.917,0,0,1,2.364-2.352A6.99,6.99,0,0,1,130.872,11.656Zm0,1.92a4.565,4.565,0,0,0-2.172.528,3.97,3.97,0,0,0-1.608,1.62,5.456,5.456,0,0,0-.612,2.7,5.4,5.4,0,0,0,.612,2.676,3.97,3.97,0,0,0,1.608,1.62,4.731,4.731,0,0,0,4.344,0,3.97,3.97,0,0,0,1.608-1.62,5.4,5.4,0,0,0,.612-2.676,5.456,5.456,0,0,0-.612-2.7,3.97,3.97,0,0,0-1.608-1.62A4.565,4.565,0,0,0,130.872,13.576Zm16.392-1.968a4.92,4.92,0,0,1,3.72,1.476,5.915,5.915,0,0,1,1.416,4.26V25h-2.184V17.536a4.209,4.209,0,0,0-1.008-3.024,3.6,3.6,0,0,0-2.736-1.056,3.741,3.741,0,0,0-2.88,1.164,4.822,4.822,0,0,0-1.08,3.4V25h-2.184V11.824h2.184v3.12a4.489,4.489,0,0,1,1.788-2.472A5.184,5.184,0,0,1,147.264,11.608ZM167.88,17.68a6.5,6.5,0,0,1-.1,1.2H157.248a4.618,4.618,0,0,0,1.284,3.384,4.19,4.19,0,0,0,2.964,1.128,4.284,4.284,0,0,0,2.652-.8,3.324,3.324,0,0,0,1.308-2.148h2.328a5.5,5.5,0,0,1-3.216,4.128,7.114,7.114,0,0,1-2.976.6,6.785,6.785,0,0,1-3.36-.816,5.766,5.766,0,0,1-2.292-2.34,7.4,7.4,0,0,1-.828-3.588,7.475,7.475,0,0,1,.828-3.6,5.748,5.748,0,0,1,2.292-2.352,6.785,6.785,0,0,1,3.36-.816,6.633,6.633,0,0,1,3.348.816,5.618,5.618,0,0,1,2.184,2.184A6.147,6.147,0,0,1,167.88,17.68Zm-2.208.144a4.483,4.483,0,0,0-.48-2.448,3.509,3.509,0,0,0-1.512-1.464,4.6,4.6,0,0,0-2.088-.48,4.322,4.322,0,0,0-3.024,1.116,4.5,4.5,0,0,0-1.32,3.276Zm12-6.216a4.92,4.92,0,0,1,3.72,1.476,5.915,5.915,0,0,1,1.416,4.26V25h-2.184V17.536a4.209,4.209,0,0,0-1.008-3.024,3.6,3.6,0,0,0-2.736-1.056A3.741,3.741,0,0,0,174,14.62a4.822,4.822,0,0,0-1.08,3.4V25h-2.184V11.824h2.184v3.12a4.489,4.489,0,0,1,1.788-2.472A5.184,5.184,0,0,1,177.672,11.608Zm32.52.216L206.4,25h-2.352l-3.624-10.728L196.776,25H194.4l-3.744-13.176h2.208l2.808,11.088,3.648-11.088h2.28l3.672,11.064L208.1,11.824Zm14.16,5.856a6.5,6.5,0,0,1-.1,1.2H213.72A4.618,4.618,0,0,0,215,22.264a4.19,4.19,0,0,0,2.964,1.128,4.284,4.284,0,0,0,2.652-.8,3.324,3.324,0,0,0,1.308-2.148h2.328a5.5,5.5,0,0,1-3.216,4.128,7.114,7.114,0,0,1-2.976.6,6.785,6.785,0,0,1-3.36-.816,5.766,5.766,0,0,1-2.292-2.34,7.4,7.4,0,0,1-.828-3.588,7.475,7.475,0,0,1,.828-3.6,5.748,5.748,0,0,1,2.292-2.352,6.785,6.785,0,0,1,3.36-.816,6.633,6.633,0,0,1,3.348.816,5.618,5.618,0,0,1,2.184,2.184A6.147,6.147,0,0,1,224.352,17.68Zm-2.208.144a4.483,4.483,0,0,0-.48-2.448,3.509,3.509,0,0,0-1.512-1.464,4.6,4.6,0,0,0-2.088-.48,4.322,4.322,0,0,0-3.024,1.116,4.5,4.5,0,0,0-1.32,3.276Zm7.248-3.336a4.846,4.846,0,0,1,1.9-2.124,5.635,5.635,0,0,1,2.976-.756v2.376h-.672a4.667,4.667,0,0,0-3.024.948,3.8,3.8,0,0,0-1.176,3.132V25h-2.184V11.824h2.184ZM243.648,25l-5.04-5.928V25h-2.184V7.24h2.184V17.56l4.968-5.736h2.664l-5.9,6.552L246.384,25Zm16.776-7.32a6.5,6.5,0,0,1-.1,1.2H249.792a4.618,4.618,0,0,0,1.284,3.384,4.19,4.19,0,0,0,2.964,1.128,4.284,4.284,0,0,0,2.652-.8A3.324,3.324,0,0,0,258,20.44h2.328a5.5,5.5,0,0,1-3.216,4.128,7.114,7.114,0,0,1-2.976.6,6.785,6.785,0,0,1-3.36-.816,5.766,5.766,0,0,1-2.292-2.34,7.4,7.4,0,0,1-.828-3.588,7.475,7.475,0,0,1,.828-3.6,5.748,5.748,0,0,1,2.292-2.352,6.785,6.785,0,0,1,3.36-.816,6.633,6.633,0,0,1,3.348.816,5.618,5.618,0,0,1,2.184,2.184A6.147,6.147,0,0,1,260.424,17.68Zm-2.208.144a4.482,4.482,0,0,0-.48-2.448,3.509,3.509,0,0,0-1.512-1.464,4.6,4.6,0,0,0-2.088-.48,4.322,4.322,0,0,0-3.024,1.116,4.5,4.5,0,0,0-1.32,3.276Zm12-6.216a4.92,4.92,0,0,1,3.72,1.476,5.915,5.915,0,0,1,1.416,4.26V25h-2.184V17.536a4.209,4.209,0,0,0-1.008-3.024,3.6,3.6,0,0,0-2.736-1.056,3.741,3.741,0,0,0-2.88,1.164,4.822,4.822,0,0,0-1.08,3.4V25H263.28V11.824h2.184v3.12a4.489,4.489,0,0,1,1.788-2.472A5.184,5.184,0,0,1,270.216,11.608Z" transform="translate(631 8394)"/><path class="a" d="M4.653-35.541Q4.653,0,31.383,0,45.54,0,51.777-9.5t6.237-26.037q0-16.434-6.237-25.938t-20.394-9.5Q4.653-70.983,4.653-35.541Zm39.6,0q0,10.791-2.623,16.583T31.383-13.167q-7.722,0-10.345-5.792T18.414-35.541q0-10.692,2.624-16.484t10.345-5.791q7.623,0,10.247,5.791T44.253-35.541Z" transform="translate(606 8204)"/><path class="b" d="M27.187,8A19.187,19.187,0,1,0,46.373,27.187,19.186,19.186,0,0,0,27.187,8Zm0,35.9A16.711,16.711,0,1,1,43.9,27.187,16.71,16.71,0,0,1,27.187,43.9ZM38.144,22.625,24.181,36.476a.928.928,0,0,1-1.313-.005l-6.644-6.7a.928.928,0,0,1,.005-1.313l.659-.654a.928.928,0,0,1,1.313.005l5.336,5.379L36.182,20.648a.928.928,0,0,1,1.313.005l.654.659a.928.928,0,0,1-.005,1.313Z" transform="translate(559 8319)"/><path class="d" d="M27.187,8A19.187,19.187,0,1,0,46.373,27.187,19.186,19.186,0,0,0,27.187,8Zm0,35.9A16.711,16.711,0,1,1,43.9,27.187,16.71,16.71,0,0,1,27.187,43.9ZM38.144,22.625,24.181,36.476a.928.928,0,0,1-1.313-.005l-6.644-6.7a.928.928,0,0,1,.005-1.313l.659-.654a.928.928,0,0,1,1.313.005l5.336,5.379L36.182,20.648a.928.928,0,0,1,1.313.005l.654.659a.928.928,0,0,1-.005,1.313Z" transform="translate(559 8382)"/><rect class="b" width="202" height="78" rx="39" transform="translate(567 8510)"/><path class="a" d="M-36.348-4.392a4.505,4.505,0,0,1-.576,2.232A4.336,4.336,0,0,1-38.676-.48a5.95,5.95,0,0,1-2.9.648,6.973,6.973,0,0,1-2.988-.612,5.316,5.316,0,0,1-2.088-1.68,4.753,4.753,0,0,1-.9-2.436h2.328a3.292,3.292,0,0,0,.492,1.4,3.268,3.268,0,0,0,1.2,1.128,3.751,3.751,0,0,0,1.884.444,2.989,2.989,0,0,0,2.208-.768,2.665,2.665,0,0,0,.768-1.968A2.537,2.537,0,0,0-39.216-6a3.826,3.826,0,0,0-1.332-1.02,18.1,18.1,0,0,0-2.16-.8,21.844,21.844,0,0,1-2.58-1,4.4,4.4,0,0,1-1.656-1.4,4.1,4.1,0,0,1-.684-2.472,4.269,4.269,0,0,1,.636-2.328,4.169,4.169,0,0,1,1.824-1.56,6.579,6.579,0,0,1,2.8-.552,6.02,6.02,0,0,1,3.96,1.212,4.638,4.638,0,0,1,1.7,3.084H-39.06a3.181,3.181,0,0,0-1.032-1.776,3.25,3.25,0,0,0-2.28-.768,3.119,3.119,0,0,0-2.112.684,2.415,2.415,0,0,0-.792,1.932,2.392,2.392,0,0,0,.516,1.6,3.591,3.591,0,0,0,1.284.96,20.669,20.669,0,0,0,2.112.78,21.421,21.421,0,0,1,2.628,1.008,4.44,4.44,0,0,1,1.692,1.452A4.341,4.341,0,0,1-36.348-4.392Zm9.216,2.472V0h-1.632a4.19,4.19,0,0,1-3.012-.96,4.336,4.336,0,0,1-1-3.216v-7.1H-34.74v-1.9h1.968v-3.288h2.208v3.288h3.408v1.9h-3.408v7.152a2.464,2.464,0,0,0,.468,1.74,2.253,2.253,0,0,0,1.62.468Zm8.064-11.424a5.414,5.414,0,0,1,3.252.96,5,5,0,0,1,1.86,2.568v-3.36h2.184V0h-2.184V-3.36a5,5,0,0,1-1.86,2.568,5.414,5.414,0,0,1-3.252.96,5.972,5.972,0,0,1-3.12-.816,5.644,5.644,0,0,1-2.148-2.34,7.779,7.779,0,0,1-.78-3.588,7.853,7.853,0,0,1,.78-3.6,5.628,5.628,0,0,1,2.148-2.352A5.972,5.972,0,0,1-19.068-13.344Zm.624,1.944a4.23,4.23,0,0,0-3.228,1.284,4.95,4.95,0,0,0-1.212,3.54,4.95,4.95,0,0,0,1.212,3.54,4.23,4.23,0,0,0,3.228,1.284,4.481,4.481,0,0,0,2.316-.6,4.177,4.177,0,0,0,1.6-1.692,5.349,5.349,0,0,0,.576-2.532,5.421,5.421,0,0,0-.576-2.544,4.079,4.079,0,0,0-1.6-1.692A4.553,4.553,0,0,0-18.444-11.4Zm12.336.888a4.846,4.846,0,0,1,1.9-2.124,5.635,5.635,0,0,1,2.976-.756v2.376h-.672a4.667,4.667,0,0,0-3.024.948A3.8,3.8,0,0,0-6.108-6.936V0H-8.292V-13.176h2.184ZM7.212-1.92V0H5.58A4.19,4.19,0,0,1,2.568-.96a4.336,4.336,0,0,1-1-3.216v-7.1H-.4v-1.9H1.572v-3.288H3.78v3.288H7.188v1.9H3.78v7.152a2.464,2.464,0,0,0,.468,1.74,2.253,2.253,0,0,0,1.62.468ZM22.74-13.392a4.92,4.92,0,0,1,3.72,1.476,5.915,5.915,0,0,1,1.416,4.26V0H25.692V-7.464a4.209,4.209,0,0,0-1.008-3.024,3.6,3.6,0,0,0-2.736-1.056,3.741,3.741,0,0,0-2.88,1.164,4.822,4.822,0,0,0-1.08,3.4V0H15.8V-13.176h2.184v3.12a4.489,4.489,0,0,1,1.788-2.472A5.184,5.184,0,0,1,22.74-13.392Zm20.208.216V0H40.764V-3.1a4.432,4.432,0,0,1-1.788,2.46,5.278,5.278,0,0,1-2.988.852,4.89,4.89,0,0,1-3.7-1.476A5.879,5.879,0,0,1,30.876-5.5v-7.68H33.06v7.464a4.254,4.254,0,0,0,1.008,3.036A3.582,3.582,0,0,0,36.8-1.608a3.741,3.741,0,0,0,2.88-1.164,4.822,4.822,0,0,0,1.08-3.4v-7.008ZM48.06-2.568V0H45.42V-2.568Z" transform="translate(668 8558)"/></g><path class="a" d="M19.764-6.948a6.892,6.892,0,0,1-.972,3.582,6.981,6.981,0,0,1-2.88,2.628,9.985,9.985,0,0,1-4.644.99A12.051,12.051,0,0,1,6.444-.666a8.157,8.157,0,0,1-3.4-2.646A7.633,7.633,0,0,1,1.584-7.344h5.4A4.126,4.126,0,0,0,8.226-4.77a3.9,3.9,0,0,0,2.826,1.026,3.289,3.289,0,0,0,2.43-.846,2.948,2.948,0,0,0,.846-2.178,2.854,2.854,0,0,0-.684-1.962,4.991,4.991,0,0,0-1.728-1.242q-1.044-.468-2.88-1.08a28.47,28.47,0,0,1-3.888-1.566,7.187,7.187,0,0,1-2.574-2.25A6.446,6.446,0,0,1,1.512-18.72,6.263,6.263,0,0,1,3.87-23.886a9.692,9.692,0,0,1,6.246-1.89,9.892,9.892,0,0,1,6.426,1.944,7.338,7.338,0,0,1,2.718,5.184H13.788a3.811,3.811,0,0,0-1.152-2.25,3.577,3.577,0,0,0-2.556-.882,3.371,3.371,0,0,0-2.268.738A2.661,2.661,0,0,0,6.948-18.9a2.663,2.663,0,0,0,.666,1.854A5.082,5.082,0,0,0,9.306-15.84,27.772,27.772,0,0,0,12.1-14.8a37.094,37.094,0,0,1,3.978,1.62,7.009,7.009,0,0,1,2.61,2.268A6.665,6.665,0,0,1,19.764-6.948Zm14.4,2.592V0H31.5a7.37,7.37,0,0,1-5.13-1.62q-1.782-1.62-1.782-5.4v-8.64H21.816v-4.284h2.772v-4.932h5.076v4.932h4.464v4.284H29.664v8.712a2.811,2.811,0,0,0,.576,2.016,2.689,2.689,0,0,0,1.944.576ZM45.612-20.2a7.665,7.665,0,0,1,4.32,1.188,6.47,6.47,0,0,1,2.556,3.2v-4.14h5.04V0h-5.04V-4.176A6.566,6.566,0,0,1,49.932-.954,7.58,7.58,0,0,1,45.612.252,8.567,8.567,0,0,1,41.076-.972a8.269,8.269,0,0,1-3.15-3.546,12.3,12.3,0,0,1-1.134-5.454,12.3,12.3,0,0,1,1.134-5.454,8.269,8.269,0,0,1,3.15-3.546A8.567,8.567,0,0,1,45.612-20.2ZM47.2-15.768A4.965,4.965,0,0,0,43.38-14.22a5.993,5.993,0,0,0-1.44,4.248,5.927,5.927,0,0,0,1.44,4.23A4.994,4.994,0,0,0,47.2-4.212a5.022,5.022,0,0,0,3.8-1.566,5.823,5.823,0,0,0,1.494-4.194,5.874,5.874,0,0,0-1.494-4.23A5.022,5.022,0,0,0,47.2-15.768Zm26.82-4.464a7.062,7.062,0,0,1,5.508,2.268,9.162,9.162,0,0,1,2.052,6.372V0h-5.04V-11.016a5.208,5.208,0,0,0-1.224-3.69,4.352,4.352,0,0,0-3.348-1.314,4.477,4.477,0,0,0-3.456,1.4,5.734,5.734,0,0,0-1.3,4.032V0H62.136V-19.944h5.076v4a6.354,6.354,0,0,1,2.61-3.15A7.758,7.758,0,0,1,74.016-20.232Zm19.836.036a7.577,7.577,0,0,1,4.3,1.188,6.706,6.706,0,0,1,2.574,3.2V-26.64h5.04V0h-5.04V-4.176A6.808,6.808,0,0,1,98.154-.954a7.494,7.494,0,0,1-4.3,1.206A8.567,8.567,0,0,1,89.316-.972a8.269,8.269,0,0,1-3.15-3.546,12.3,12.3,0,0,1-1.134-5.454,12.3,12.3,0,0,1,1.134-5.454,8.269,8.269,0,0,1,3.15-3.546A8.567,8.567,0,0,1,93.852-20.2Zm1.584,4.428A4.965,4.965,0,0,0,91.62-14.22a5.993,5.993,0,0,0-1.44,4.248,5.927,5.927,0,0,0,1.44,4.23,4.994,4.994,0,0,0,3.816,1.53,5.022,5.022,0,0,0,3.8-1.566,5.823,5.823,0,0,0,1.494-4.194,5.874,5.874,0,0,0-1.494-4.23A5.022,5.022,0,0,0,95.436-15.768ZM118.188-20.2a7.665,7.665,0,0,1,4.32,1.188,6.47,6.47,0,0,1,2.556,3.2v-4.14h5.04V0h-5.04V-4.176a6.566,6.566,0,0,1-2.556,3.222,7.58,7.58,0,0,1-4.32,1.206,8.567,8.567,0,0,1-4.536-1.224,8.269,8.269,0,0,1-3.15-3.546,12.3,12.3,0,0,1-1.134-5.454,12.3,12.3,0,0,1,1.134-5.454,8.269,8.269,0,0,1,3.15-3.546A8.567,8.567,0,0,1,118.188-20.2Zm1.584,4.428a4.965,4.965,0,0,0-3.816,1.548,5.993,5.993,0,0,0-1.44,4.248,5.927,5.927,0,0,0,1.44,4.23,4.994,4.994,0,0,0,3.816,1.53,5.022,5.022,0,0,0,3.8-1.566,5.823,5.823,0,0,0,1.494-4.194,5.874,5.874,0,0,0-1.494-4.23A5.022,5.022,0,0,0,119.772-15.768ZM142.524-20.2a7.665,7.665,0,0,1,4.32,1.188,6.47,6.47,0,0,1,2.556,3.2v-4.14h5.04V0H149.4V-4.176a6.566,6.566,0,0,1-2.556,3.222,7.58,7.58,0,0,1-4.32,1.206,8.567,8.567,0,0,1-4.536-1.224,8.269,8.269,0,0,1-3.15-3.546A12.3,12.3,0,0,1,133.7-9.972a12.3,12.3,0,0,1,1.134-5.454,8.269,8.269,0,0,1,3.15-3.546A8.567,8.567,0,0,1,142.524-20.2Zm1.584,4.428a4.965,4.965,0,0,0-3.816,1.548,5.993,5.993,0,0,0-1.44,4.248,5.927,5.927,0,0,0,1.44,4.23,4.994,4.994,0,0,0,3.816,1.53,5.022,5.022,0,0,0,3.8-1.566A5.823,5.823,0,0,0,149.4-9.972a5.874,5.874,0,0,0-1.494-4.23A5.022,5.022,0,0,0,144.108-15.768Zm20.016-.36a8.343,8.343,0,0,1,2.952-3.006,7.842,7.842,0,0,1,4.1-1.1V-14.8H169.7q-5.58,0-5.58,5.184V0h-5.076V-19.944h5.076ZM181.8-20.2a7.577,7.577,0,0,1,4.3,1.188,6.706,6.706,0,0,1,2.574,3.2V-26.64h5.04V0h-5.04V-4.176A6.808,6.808,0,0,1,186.1-.954,7.494,7.494,0,0,1,181.8.252a8.567,8.567,0,0,1-4.536-1.224,8.269,8.269,0,0,1-3.15-3.546,12.3,12.3,0,0,1-1.134-5.454,12.3,12.3,0,0,1,1.134-5.454,8.269,8.269,0,0,1,3.15-3.546A8.567,8.567,0,0,1,181.8-20.2Zm1.584,4.428a4.965,4.965,0,0,0-3.816,1.548,5.993,5.993,0,0,0-1.44,4.248,5.927,5.927,0,0,0,1.44,4.23,4.994,4.994,0,0,0,3.816,1.53,5.022,5.022,0,0,0,3.8-1.566,5.823,5.823,0,0,0,1.494-4.194,5.874,5.874,0,0,0-1.494-4.23A5.022,5.022,0,0,0,183.384-15.768ZM202.536-5.292V0h-5.472V-5.292Z" transform="translate(567 8099)"/></g></svg>