<svg xmlns="http://www.w3.org/2000/svg" xmlns:xlink="http://www.w3.org/1999/xlink" width="603" height="400" viewBox="0 0 603 400"><defs><clipPath id="a"><rect width="603" height="400" transform="translate(358 2703)" fill="#efefef"/></clipPath><linearGradient id="b" x1="0.5" y1="1.001" x2="0.5" gradientUnits="objectBoundingBox"><stop offset="0" stop-color="gray" stop-opacity="0.251"/><stop offset="0.54" stop-color="gray" stop-opacity="0.122"/><stop offset="1" stop-color="gray" stop-opacity="0.102"/></linearGradient><linearGradient id="c" x1="0.141" y1="0.451" x2="1.272" y2="0.451" xlink:href="#b"/></defs><g transform="translate(-358 -2703)" clip-path="url(#a)"><g transform="translate(368.875 2702.985)"><path d="M420.478,149.846a3.853,3.853,0,0,0,.7-2.143c0-4.654-9.481-8.42-21.177-8.42s-21.177,3.766-21.177,8.42a3.97,3.97,0,0,0,.873,2.388c-13.023,1.454-21.794,4.179-21.794,7.307,0,4.649,19.391,8.42,43.375,8.42s43.375-3.771,43.375-8.42C444.625,154.107,434.766,151.224,420.478,149.846Z" transform="translate(-15.548 -29.622)" fill="#8888fa" opacity="0.1"/><g opacity="0.2"><path d="M479.952,393.877a24.418,24.418,0,0,0-.219,4.011q13.339.214,26.8.9c.061-.347.122-.709.174-1.072a21.306,21.306,0,0,0-1.25-11.083c-1.847-4.506-5.292-7.726-9.6-8.343s-8.517,1.5-11.553,5.281a21.259,21.259,0,0,0-4.343,10.308Z" transform="translate(-15.548 -29.622)" fill="#3f3d56"/><ellipse cx="17.687" cy="13.512" rx="17.687" ry="13.512" transform="translate(464.988 360.373) rotate(-81.82)" fill="#3f3d56"/><ellipse cx="17.687" cy="13.512" rx="17.687" ry="13.512" transform="translate(468.062 338.979) rotate(-81.82)" fill="#3f3d56"/><ellipse cx="17.687" cy="13.512" rx="17.687" ry="13.512" transform="translate(471.136 317.581) rotate(-81.82)" fill="#3f3d56"/><ellipse cx="17.687" cy="13.512" rx="17.687" ry="13.512" transform="translate(474.21 296.182) rotate(-81.82)" fill="#3f3d56"/><path d="M576.733,170.982a65.659,65.659,0,0,0,6.037-6.634l-34.312-10.8,37.966,5.746a64.847,64.847,0,0,0,8.517-50.6l-54.785,19.121,51.983-27.8a64.72,64.72,0,1,0-116.1,56.494,64.8,64.8,0,0,0-8.981,10.634l42.211,30.25-46.288-23.31a64.74,64.74,0,0,0,1.684,61.633,64.715,64.715,0,1,0,100.7,14.472,64.725,64.725,0,0,0,11.379-79.207Z" transform="translate(-15.548 -29.622)" fill="#8888fa"/><path d="M456.642,194.144a64.414,64.414,0,0,0,8.017,41.573,64.715,64.715,0,1,0,100.7,14.472C575.5,240.525,457.673,186.954,456.642,194.144Z" transform="translate(-15.548 -29.622)" opacity="0.1"/></g><g opacity="0.2"><path d="M100.491,374.96a20.738,20.738,0,0,0,.893,3.388q10.874-3.5,21.973-6.634c-.041-.306-.087-.623-.143-.939a18.779,18.779,0,0,0-3.97-8.859c-2.7-3.23-6.353-4.955-10.017-4.276s-6.511,3.572-7.966,7.573a19.039,19.039,0,0,0-.771,9.746Z" transform="translate(-15.548 -29.622)" fill="#3f3d56"/><ellipse cx="11.553" cy="15.457" rx="11.553" ry="15.457" transform="matrix(0.988, -0.156, 0.156, 0.988, 79.293, 311.161)" fill="#3f3d56"/><ellipse cx="11.586" cy="15.501" rx="11.586" ry="15.501" transform="matrix(0.987, -0.16, 0.16, 0.987, 77.489, 292.926)" fill="#3f3d56"/><ellipse cx="11.553" cy="15.457" rx="11.553" ry="15.457" transform="matrix(0.988, -0.156, 0.156, 0.988, 72.861, 273.938)" fill="#3f3d56"/><ellipse cx="11.553" cy="15.457" rx="11.553" ry="15.457" transform="matrix(0.988, -0.156, 0.156, 0.988, 69.651, 255.323)" fill="#3f3d56"/><path d="M119.556,163.221a57.663,57.663,0,0,0,3.128-7.144l-30.719.48,32.332-5.7a57.78,57.78,0,0,0,.959-24.218,57.1,57.1,0,0,0-7.542-20.121L78.365,137.5l34.761-37.419A54.387,54.387,0,0,0,61.209,80.942C31.128,86.463,11.089,115.9,16.4,146.667A56.5,56.5,0,0,0,34,178.974a57.3,57.3,0,0,0-4.455,11.3l42.313,13.477-43.788-6.588a57.775,57.775,0,0,0,.214,18.4,56.5,56.5,0,0,0,17.595,32.306,57.632,57.632,0,0,0-5.7,36.593c5.312,30.775,33.985,51.233,64.046,45.7s50.121-34.965,44.808-65.74a56.515,56.515,0,0,0-17.595-32.3,57.662,57.662,0,0,0,5.7-36.6,56.515,56.515,0,0,0-17.579-32.3Z" transform="translate(-15.548 -29.622)" fill="#8888fa"/><path d="M28.3,215.566A56.5,56.5,0,0,0,45.89,247.873a57.632,57.632,0,0,0-5.7,36.593c5.312,30.776,33.985,51.233,64.046,45.7s50.121-34.965,44.808-65.74a56.514,56.514,0,0,0-17.595-32.3C137.109,221.292,27.214,209.315,28.3,215.566Z" transform="translate(-15.548 -29.622)" opacity="0.1"/></g><path d="M73.645,332.428c0,26.693,16.743,48.289,37.435,48.289" transform="translate(-15.548 -29.622)" fill="#46455b"/><path d="M111.08,380.716c0-26.989,18.687-48.83,41.782-48.83" transform="translate(-15.548 -29.622)" fill="#8888fa"/><path d="M87.208,334.846c0,25.356,10.675,45.87,23.871,45.87" transform="translate(-15.548 -29.622)" fill="#8888fa"/><path d="M111.08,380.716c0-34.485,21.6-62.393,48.294-62.393" transform="translate(-15.548 -29.622)" fill="#46455b"/><ellipse cx="260.758" cy="8.67" rx="260.758" ry="8.67" transform="translate(8.598 362.596)" fill="#8888fa" opacity="0.1"/><ellipse cx="9.532" cy="1.613" rx="9.532" ry="1.613" transform="translate(81.677 354.722)" fill="#8888fa" opacity="0.1"/><path d="M100.353,378.466s5.44-.163,7.078-1.332,8.359-2.551,8.767-.689,8.165,9.308,2.041,9.354-14.257-.954-15.9-1.949S100.353,378.466,100.353,378.466Z" transform="translate(-15.548 -29.622)" fill="#a8a8a8"/><path d="M118.341,385.151c-6.123.046-14.263-.959-15.9-1.954-1.245-.755-1.745-3.48-1.908-4.735h-.184s.347,4.388,1.98,5.384,9.762,2,15.9,1.949c1.771,0,2.383-.643,2.352-1.577C120.336,384.788,119.658,385.14,118.341,385.151Z" transform="translate(-15.548 -29.622)" opacity="0.2"/><path d="M366.387,131.144c-7.323-36.088-38.705-63.276-76.885-63.276a78.4,78.4,0,0,0-69.568,42.354,62.691,62.691,0,0,0,6.8,125.021H362.729a52.462,52.462,0,0,0,52.3-52.3A51.667,51.667,0,0,0,366.387,131.144Zm-60.153,30.847v39.751H272.76V161.991H237.192l52.3-52.279,52.3,52.3Z" transform="translate(-15.548 -29.622)" fill="#8888fa"/><path d="M238.346,156.021c-.51-2.914-.26-6.052-1.6-8.675a1.888,1.888,0,0,0-.607-.781,2.1,2.1,0,0,0-1.087-.25c-1.209-.046-2.414-.061-3.623-.031a1,1,0,0,0-.908.347.368.368,0,0,0-.046.1c-1.383-1.531-2.429-3.465-3.919-4.894.214-.071.424-.138.643-.194a2.05,2.05,0,0,0-.082-.429.524.524,0,0,0-.036-.128c-.01-.041-.046-.194-.077-.291a.952.952,0,0,0-.051-.143,2.815,2.815,0,0,0-.092-.27.394.394,0,0,0-.056-.138l-.107-.27-.061-.128c-.041-.092-.082-.184-.128-.27l-.061-.112c-.046-.1-.1-.194-.148-.291l-.051-.092c-.056-.1-.117-.2-.173-.311a.209.209,0,0,1-.036-.056c-.066-.117-.138-.235-.209-.347h0c-.582-.949-1.225-1.883-1.7-2.858a36.894,36.894,0,0,1-1.664-5.475,7.393,7.393,0,0,0-3.184-4.557c-.8-.408-1.873-.771-1.949-1.674a2,2,0,0,1,.179-.842,11.28,11.28,0,0,1,.832-1.689c.122-.194.25-.388.378-.582l.1-.138c.1-.143.209-.286.316-.418l.133-.168c.107-.133.219-.255.332-.383l.138-.148c.158-.168.316-.332.485-.51a1.179,1.179,0,0,0,.357-.454,1.377,1.377,0,0,0,.026-.541,6.476,6.476,0,0,1,1.531-4,15.289,15.289,0,0,0,2.332-3.659c.056-.158.1-.316.143-.48a1.438,1.438,0,0,0,.036-.158c.026-.107.046-.214.066-.327l.031-.184a2.851,2.851,0,0,1,.036-.3v-1.194a1.55,1.55,0,0,0-.026-.321v-.174a3.11,3.11,0,0,0-.051-.373v-.122q-.036-.25-.092-.51h0a25.512,25.512,0,0,0-.939-3.194,11.412,11.412,0,0,0-.776-1.857c.189-.036.383-.077.572-.128a8.333,8.333,0,0,1-.413-.725,19,19,0,0,0,2.608-5.659,26.191,26.191,0,0,0,.51-4.373,90.716,90.716,0,0,0,.2-13.268v-.173a10.716,10.716,0,0,0,.031-2.858,12,12,0,0,0-1.6-5.271,6.427,6.427,0,0,0-4.44-3.123,7.022,7.022,0,0,1-.99.919,3.893,3.893,0,0,1-1.158-1.8,9.8,9.8,0,0,0,8.221-8.583c0-.158.036-.321.046-.48v-1.4a1.44,1.44,0,0,0-.031-.332.916.916,0,0,0,0-.117l-.046-.357v-.077a2,2,0,0,0-.066-.383v-.041c-.025-.138-.056-.27-.092-.408h0a9.828,9.828,0,0,0-1.077-2.643,9.843,9.843,0,0,0,.776-2.837c0-.179.036-.352.046-.51s0-.225,0-.337v-.6a.142.142,0,0,1,0-.046,9.92,9.92,0,0,0-2.75-6.562,5.738,5.738,0,0,0,.485-1.021h0c.041-.107.077-.214.107-.327h0c.031-.107.061-.209.087-.316V37.22l.061-.291a.153.153,0,0,1,0-.051,2.85,2.85,0,0,1,.051-.347,2.812,2.812,0,0,1,.031-.357v-.842a6.037,6.037,0,0,0-12.033-.27,6.231,6.231,0,0,0,.056,1.852,9.874,9.874,0,0,0-5.475,7.7,10.015,10.015,0,0,0-.056,1.653,9.956,9.956,0,0,0-1.531,4.593h0v.184c0,.2-.025.413-.025.617a9.915,9.915,0,0,0,3.812,7.843,6.976,6.976,0,0,0,1.929,2.041,7.689,7.689,0,0,1,.311,1.276,3.868,3.868,0,0,1-1.174,3.169c-.219.184-.464.337-.694.51a1.291,1.291,0,0,0-.709,0,10.292,10.292,0,0,0-6.363,4.97,9.7,9.7,0,0,0-.633,1.776l-.143.219a25.514,25.514,0,0,0-3.4,8.165,18,18,0,0,1-1.235,4.378,4.52,4.52,0,0,0-.4.893,8.913,8.913,0,0,0-.061,1.434,23.173,23.173,0,0,1-.745,2.49c-.1.51-.082,1.021-.168,1.531a15.609,15.609,0,0,1-.954,2.551c-.541,1.5-.536,3.148-.939,4.695a1.648,1.648,0,0,1-.316.7,3.6,3.6,0,0,1-1.061.572,2.342,2.342,0,0,0-1.066,1.6,7.027,7.027,0,0,0-.036,1.99l.2,2.587-2.9.878L183.5,109.38a14.155,14.155,0,0,0-3.95,1.669,7.262,7.262,0,0,0-2.49,3.021,15.217,15.217,0,0,0-.924,3.945,59.919,59.919,0,0,1-2.444,11.124c-.1.276-.2.556-.3.832h0l-.321.811c-.025.056-.051.112-.071.168l-.276.648c-.122.276-.25.546-.383.816l11.14,3.715a3.6,3.6,0,0,0,.046.434c.388,2.735.2,5.511.556,8.251a5.331,5.331,0,0,0,.311,1.332,1.9,1.9,0,0,0-.587.929,4.94,4.94,0,0,0-.056,1.776c.128,1.4.25,2.8.378,4.195a6.492,6.492,0,0,1,0,1.531,16.448,16.448,0,0,1-.959,2.618,2.3,2.3,0,0,0,.454,2.551,1.806,1.806,0,0,0,1.755.158,4.123,4.123,0,0,0,1.454-1.118c2.24-2.49,3.245-5.853,4.986-8.726a16.452,16.452,0,0,0,1.194-2.077c.24-.556.393-1.148.587-1.725a17.711,17.711,0,0,1,.959-2.24c.209-.413,1.021-1.408.837-1.868-.286-.791-3.342-1.485-4.082-1.73a2.041,2.041,0,0,0-1.5-.066.939.939,0,0,0-.2.133l-.26-3.373c.454-.041.9-.1,1.347-.173q0-.949-.046-1.914c0-.582-.026-1.169-.041-1.755-.031-1.429-.061-2.858-.1-4.261a23.605,23.605,0,0,0-.158-2.475c-.173-1.25-.556-2.475-.679-3.735a1.423,1.423,0,0,1,.633-.286h0a4.481,4.481,0,0,1,1.082-.041h.286a9.267,9.267,0,0,0,4.506-1.245c1.4-.73,2.7-1.643,4.082-2.393l.51-.27.194-.1.327-.163.27-.128.061-.031c.811-.388,1.633-.765,2.419-1.189a2.735,2.735,0,0,0,.173.25,1.628,1.628,0,0,0,1.7.617c-.964,2.322-2.1,4.567-2.383,7.078-.418,3.628,1.021,7.144,2.454,10.522l4.536,10.716c.51,1.184,1.169,2.511,2.409,2.791a3.572,3.572,0,0,0,2.276-.454,42.62,42.62,0,0,0,5.848-3.735l.077.061a19.955,19.955,0,0,1,3.985,5.062l3.179,5.225a1.577,1.577,0,0,0,.128.765,4.455,4.455,0,0,0,.893,1.158,15.048,15.048,0,0,1,3.827,7.833,4.812,4.812,0,0,0,.633,2.133c.852,1.184,2.669,1.107,3.95.434a2.49,2.49,0,0,0,.99-.816,3.225,3.225,0,0,0,.4-1.235,17.039,17.039,0,0,0,.383-3.286C239.484,160.072,238.713,158.077,238.346,156.021ZM220.093,59.872a7.461,7.461,0,0,0,.643-.475,9.869,9.869,0,0,1-2.041,3.5h0c-.214.235-.444.454-.679.668V63.4c-.026-.51,0-1.077,0-1.618a6.828,6.828,0,0,0,2.077-1.914Zm-18.018,40.267.031-.1a1.949,1.949,0,0,1,.464.475,1.929,1.929,0,0,0,.071,1.73c.265.449.745.867.643,1.383s-.755.72-1.286.806c-.7.112-1.388.24-2.077.378v-.036a5.357,5.357,0,0,0-.23-1.7A4.912,4.912,0,0,0,202.074,100.139Z" transform="translate(-15.548 -29.622)" fill="url(#b)"/><path d="M223.313,40.731a6.057,6.057,0,1,0-11.226-3.822,5.934,5.934,0,0,0,.056,1.832,9.7,9.7,0,0,0-5.532,9.252A9.736,9.736,0,1,0,224.527,53.3V52.84a9.741,9.741,0,0,0-1.189-12.109Z" transform="translate(-15.548 -29.622)" fill="#46455b"/><g opacity="0.1"><path d="M212.071,37.205l.082-.046a3.145,3.145,0,0,1-.046-.316.3.3,0,0,0,0,.066,2.768,2.768,0,0,0-.036.3Z" transform="translate(-15.548 -29.622)"/><path d="M226.007,47.115a9.7,9.7,0,0,1-1.505,4.149q0,.23,0,.459a9.736,9.736,0,0,1-19.437.786c0,.265-.036.51-.036.8a9.736,9.736,0,1,0,19.473,0c0-.158,0-.311,0-.464a9.64,9.64,0,0,0,1.505-4.149,9.4,9.4,0,0,0,.036-1.965A1.427,1.427,0,0,1,226.007,47.115Z" transform="translate(-15.548 -29.622)"/><path d="M224.114,36.838a6.078,6.078,0,0,1-.8,2.317c.173.173.332.357.51.541a6.037,6.037,0,0,0,.316-1.332,5.868,5.868,0,0,0-.025-1.526Z" transform="translate(-15.548 -29.622)"/></g><path d="M184.082,145.187a4.414,4.414,0,0,0,.444,1.592,1.745,1.745,0,0,0,1.291.944,2.6,2.6,0,0,0,1.424-.413,4.87,4.87,0,0,0,2.215-1.847,5.014,5.014,0,0,0,.3-2.781l-.582-7.425c-1.4-.041-2.807-.041-4.21.036s-1.633.4-1.439,1.76C183.908,139.748,183.7,142.488,184.082,145.187Z" transform="translate(-15.548 -29.622)" fill="#fbbebe"/><path d="M225.221,150.2l3.332,5.389a1.327,1.327,0,0,0,.73.684,1.107,1.107,0,0,0,.694-.122,8.675,8.675,0,0,0,2.781-2.307,5.1,5.1,0,0,0,1.337-2.041,2.608,2.608,0,0,0-.663-2.454,7.843,7.843,0,0,0-1.25-.908c-2.638-1.781-3.827-5.159-6.43-6.986a1.021,1.021,0,0,0-.51-.23,1.123,1.123,0,0,0-.541.184l-3.572,1.949c-1.531.842-1.056.944.117,1.852A20.231,20.231,0,0,1,225.221,150.2Z" transform="translate(-15.548 -29.622)" fill="#fbbebe"/><path d="M191.323,140.891a2.041,2.041,0,0,0-1.5-.051,1.643,1.643,0,0,0-.781,1.23,15.046,15.046,0,0,1-.219,1.5,5.1,5.1,0,0,1-1.454,2.041,2.174,2.174,0,0,1-.913.638c-.485.122-1-.1-1.485,0a1.623,1.623,0,0,0-1.169,1.194,4.684,4.684,0,0,0-.056,1.75l.378,4.133a6.323,6.323,0,0,1,0,1.531,16.061,16.061,0,0,1-.959,2.582,2.3,2.3,0,0,0,.454,2.551,1.842,1.842,0,0,0,1.761.153,4.082,4.082,0,0,0,1.454-1.1c2.245-2.449,3.251-5.771,5-8.6a16.513,16.513,0,0,0,1.194-2.041c.24-.551.393-1.133.587-1.7a16.937,16.937,0,0,1,.964-2.21c.2-.408,1.021-1.388.837-1.842C195.145,141.819,192.078,141.131,191.323,140.891Z" transform="translate(-15.548 -29.622)" fill="#46455b"/><path d="M231.845,152.306a4.3,4.3,0,0,1-2.368,2.041,2.179,2.179,0,0,0-.8.413,1.245,1.245,0,0,0-.143,1.362,4.4,4.4,0,0,0,.9,1.143,14.763,14.763,0,0,1,3.827,7.721,4.8,4.8,0,0,0,.638,2.107c.852,1.169,2.674,1.092,3.96.424a2.552,2.552,0,0,0,.99-.8,3.153,3.153,0,0,0,.4-1.22,16.575,16.575,0,0,0,.383-3.24c0-2.041-.8-4.026-1.163-6.047-.51-2.873-.265-5.97-1.6-8.563a1.888,1.888,0,0,0-.6-.786,2.149,2.149,0,0,0-1.092-.245c-1.2-.046-2.419-.056-3.628-.031a1.013,1.013,0,0,0-.908.342,1.051,1.051,0,0,0,.133.985C231.508,149.377,232.722,150.535,231.845,152.306Z" transform="translate(-15.548 -29.622)" fill="#46455b"/><path d="M203.136,100.818a1.873,1.873,0,0,0-.439,2.358c.27.444.75.857.643,1.368s-.755.7-1.286.791a105.138,105.138,0,0,0-13.778,3.485l-4.766,1.434a14.222,14.222,0,0,0-3.96,1.643,7.144,7.144,0,0,0-2.49,2.975,14.8,14.8,0,0,0-.929,3.888c-.714,4.873-1.628,9.787-3.8,14.206l11.548,3.791a16.972,16.972,0,0,0,3.465.868,12.686,12.686,0,0,0,3.373-.163c-.071-2.577-.117-5.236-.189-7.818a21.581,21.581,0,0,0-.158-2.439c-.174-1.235-.556-2.439-.679-3.684a2.954,2.954,0,0,1,2-.311,9.466,9.466,0,0,0,4.521-1.22c1.4-.725,2.7-1.623,4.082-2.363,2.322-1.23,4.965-2.041,6.741-4-.9,3.444-3.062,6.445-3.455,9.981s1.021,7.067,2.465,10.369l4.547,10.553c.51,1.163,1.169,2.475,2.409,2.75a3.649,3.649,0,0,0,2.281-.449c4.184-1.96,7.532-5.649,12-6.823-.337-2.215-2.082-4.047-3.062-6.052a35.365,35.365,0,0,1-1.664-5.4,7.253,7.253,0,0,0-3.194-4.491c-.8-.4-1.878-.76-1.949-1.653a1.827,1.827,0,0,1,.179-.832,10.752,10.752,0,0,1,2.72-3.955,1.27,1.27,0,0,0,.357-.449,1.424,1.424,0,0,0,.026-.51,6.306,6.306,0,0,1,1.531-3.939,15.117,15.117,0,0,0,2.337-3.608c.832-2.332,0-4.894-.816-7.226a7.276,7.276,0,0,0-1.368-2.648,6.733,6.733,0,0,0-4.3-1.648C213.056,99.032,207.141,97.71,203.136,100.818Z" transform="translate(-15.548 -29.622)" fill="#46455b"/><g opacity="0.1"><path d="M222.241,111.029a6.192,6.192,0,0,0-1.531,3.939,1.424,1.424,0,0,1-.026.51,1.271,1.271,0,0,1-.357.449,10.752,10.752,0,0,0-2.72,3.955,1.837,1.837,0,0,0-.179.832,1.6,1.6,0,0,0,1.021,1.194,10.717,10.717,0,0,1,1.888-2.3,1.271,1.271,0,0,0,.357-.449,1.424,1.424,0,0,0,.026-.51,6.307,6.307,0,0,1,1.531-3.939,15.117,15.117,0,0,0,2.337-3.608,7.491,7.491,0,0,0,.122-4.082q-.051.2-.122.4A14.9,14.9,0,0,1,222.241,111.029Z" transform="translate(-15.548 -29.622)"/><path d="M202.61,101.517a.964.964,0,0,0,.73-.658.658.658,0,0,0,0-.2l-.219.158A1.776,1.776,0,0,0,202.61,101.517Z" transform="translate(-15.548 -29.622)"/><path d="M187.342,133.941a16.972,16.972,0,0,1-3.465-.867l-10.206-3.347a29.356,29.356,0,0,1-1.352,3.24l11.558,3.791a16.972,16.972,0,0,0,3.465.868,12.686,12.686,0,0,0,3.373-.163c-.036-1.209-.061-2.439-.092-3.669a12.63,12.63,0,0,1-3.281.148Z" transform="translate(-15.548 -29.622)"/><path d="M215.3,145.152a3.649,3.649,0,0,1-2.281.449c-1.24-.276-1.908-1.587-2.409-2.75L206.06,132.3a28.891,28.891,0,0,1-2.383-7.21c-.031.174-.056.347-.082.51-.413,3.572,1.021,7.068,2.465,10.369l4.547,10.553c.51,1.163,1.169,2.475,2.409,2.75a3.648,3.648,0,0,0,2.281-.449c4.184-1.96,7.532-5.649,12-6.823a8.674,8.674,0,0,0-1.373-3.23C222.118,140.263,219.041,143.391,215.3,145.152Z" transform="translate(-15.548 -29.622)"/><path d="M207.05,111.947c-1.776,1.939-4.419,2.766-6.741,4-1.393.74-2.7,1.638-4.082,2.363a9.471,9.471,0,0,1-4.521,1.225c-.689,0-1.465-.133-2,.306.112,1.148.444,2.266.633,3.4a6.125,6.125,0,0,1,1.368-.031,9.466,9.466,0,0,0,4.521-1.22c1.4-.725,2.7-1.623,4.082-2.363,1.531-.811,3.2-1.444,4.669-2.342a40.247,40.247,0,0,0,2.072-5.338Z" transform="translate(-15.548 -29.622)"/></g><path d="M211.1,64.3a3.771,3.771,0,0,1-1.174,3.118c-.281.24-.612.418-.883.668a2.393,2.393,0,0,0,.347,3.638,4.548,4.548,0,0,0,3.148.225,18.187,18.187,0,0,0,4.133-1.077,6.833,6.833,0,0,0,3.256-2.669,4.011,4.011,0,0,1-1.852-3.317c-.071-1.322.291-2.822-.546-3.848s-2.322-.98-3.572-.643c-.617.173-1.214.408-1.832.577-.316.082-1.347.087-1.531.316C210.239,61.7,211.066,63.628,211.1,64.3Z" transform="translate(-15.548 -29.622)" fill="#fbbebe"/><path d="M211.1,64.3a3.771,3.771,0,0,1-1.174,3.118c-.281.24-.612.418-.883.668a2.393,2.393,0,0,0,.347,3.638,4.548,4.548,0,0,0,3.148.225,18.187,18.187,0,0,0,4.133-1.077,6.833,6.833,0,0,0,3.256-2.669,4.011,4.011,0,0,1-1.852-3.317c-.071-1.322.291-2.822-.546-3.848s-2.322-.98-3.572-.643c-.617.173-1.214.408-1.832.577-.316.082-1.347.087-1.531.316C210.239,61.7,211.066,63.628,211.1,64.3Z" transform="translate(-15.548 -29.622)" opacity="0.1"/><circle cx="6.843" cy="6.843" r="6.843" transform="translate(192.256 20.917)" fill="#fbbebe"/><path d="M193.042,109.87a4.633,4.633,0,0,1-.643,1.531,7.083,7.083,0,0,0-.816,4.669,4.914,4.914,0,0,0,2.873,3.633,1.965,1.965,0,0,0,1.965-.122,6.578,6.578,0,0,1-.908-4.312,1.444,1.444,0,0,1,.189-.8.51.51,0,0,1,.725-.128,6.439,6.439,0,0,0,.536,2.75c.143.332.388.7.755.689.51,0,.658-.72.638-1.24a13.744,13.744,0,0,0-1.2-6.19,7.322,7.322,0,0,1-1.021-2.087,1.235,1.235,0,0,0-.265-.73.913.913,0,0,0-.383-.179c-.587-.168-1.985-.684-2.47-.133S193.134,109.166,193.042,109.87Z" transform="translate(-15.548 -29.622)" fill="#fbbebe"/><path d="M203.2,73.522c-.786-.092-1.4.628-1.832,1.291a24.953,24.953,0,0,0-3.409,8.073,17.318,17.318,0,0,1-1.235,4.317,4.4,4.4,0,0,0-.4.878,9.344,9.344,0,0,0-.061,1.419,22.925,22.925,0,0,1-.745,2.454c-.1.51-.082,1.021-.173,1.531a14.931,14.931,0,0,1-.949,2.506c-.546,1.48-.541,3.1-.944,4.628a1.587,1.587,0,0,1-.316.684c-.27.3-.709.373-1.061.566A2.307,2.307,0,0,0,191,103.446a6.808,6.808,0,0,0-.036,1.96l.316,4.047c.321-.138.51-.51.806-.73a2.279,2.279,0,0,1,1.852-.2l.924.168a3.978,3.978,0,0,1,2.551,1.133c.48-.755.209-1.863.944-2.363.24-.163.541-.214.791-.357a1.771,1.771,0,0,0,.806-1.419,5.235,5.235,0,0,0-.23-1.679,4.91,4.91,0,0,0,2.383-2.9,24.251,24.251,0,0,0,1.1-4.47,115.526,115.526,0,0,0,2.143-18.182,8.741,8.741,0,0,0-.332-3.026C204.707,74.456,204.218,73.635,203.2,73.522Z" transform="translate(-15.548 -29.622)" fill="#8888fa"/><path d="M203.2,73.522c-.786-.092-1.4.628-1.832,1.291a24.953,24.953,0,0,0-3.409,8.073,17.318,17.318,0,0,1-1.235,4.317,4.4,4.4,0,0,0-.4.878,9.344,9.344,0,0,0-.061,1.419,22.925,22.925,0,0,1-.745,2.454c-.1.51-.082,1.021-.173,1.531a14.931,14.931,0,0,1-.949,2.506c-.546,1.48-.541,3.1-.944,4.628a1.587,1.587,0,0,1-.316.684c-.27.3-.709.373-1.061.566A2.307,2.307,0,0,0,191,103.446a6.808,6.808,0,0,0-.036,1.96l.316,4.047c.321-.138.51-.51.806-.73a2.279,2.279,0,0,1,1.852-.2l.924.168a3.978,3.978,0,0,1,2.551,1.133c.48-.755.209-1.863.944-2.363.24-.163.541-.214.791-.357a1.771,1.771,0,0,0,.806-1.419,5.235,5.235,0,0,0-.23-1.679,4.91,4.91,0,0,0,2.383-2.9,24.251,24.251,0,0,0,1.1-4.47,115.526,115.526,0,0,0,2.143-18.182,8.741,8.741,0,0,0-.332-3.026C204.707,74.456,204.218,73.635,203.2,73.522Z" transform="translate(-15.548 -29.622)" opacity="0.1"/><path d="M220.445,66.97a8.634,8.634,0,0,1-4.159,2.419,25.515,25.515,0,0,1-4.822.709,3.062,3.062,0,0,1-1.49-.128,1.021,1.021,0,0,1-.617-1.22,1.459,1.459,0,0,0,.179-.475c0-.418-.623-.454-1.021-.332a10.3,10.3,0,0,0-6.374,4.9,14.8,14.8,0,0,0-1.133,4.511c-.572,4.082-1.143,8.2-.378,12.247.413,2.148,1.2,4.235,1.245,6.419.031,1.225-.179,2.444-.168,3.669a1.852,1.852,0,0,0,.327,1.209c.189.219.475.357.607.617.219.429-.077,1.021.214,1.413.362.48,1.107.133,1.6-.2a12.727,12.727,0,0,1,8.466-2.128c3.572.383,7.144,2.3,10.624,1.337a4.864,4.864,0,0,1-.459-.827,24.188,24.188,0,0,1,.98-17.426c.883-1.832,2.041-3.572,2.4-5.583a10.716,10.716,0,0,0,.036-2.832,11.737,11.737,0,0,0-1.607-5.2A6.372,6.372,0,0,0,220.445,66.97Z" transform="translate(-15.548 -29.622)" fill="#8888fa"/><path d="M203.9,111.631a6.312,6.312,0,0,0-.393,2.332,14.079,14.079,0,0,0,.112,2.271,3.633,3.633,0,0,0,.668,1.786,1.628,1.628,0,0,0,1.7.607,1.786,1.786,0,0,0,1.021-1.143,10.885,10.885,0,0,0,.327-1.561c.3-1.531,1.112-3.011,1.128-4.593a1.332,1.332,0,0,0-.087-.551,3.13,3.13,0,0,0-2.46-1.271C205.039,109.646,204.223,110.881,203.9,111.631Z" transform="translate(-15.548 -29.622)" fill="#fbbebe"/><path d="M223.639,72.747c-.133,1.362,1.184,2.388,1.7,3.649a6.242,6.242,0,0,1,.357,1.837,87.448,87.448,0,0,1-.2,13.079,24.417,24.417,0,0,1-.51,4.312c-.735,2.975-2.551,5.557-4.312,8.057a6.836,6.836,0,0,1-.924,1.133,6.925,6.925,0,0,1-1.715,1.021l-6.072,2.944a11.737,11.737,0,0,0-2.159,1.24,5.888,5.888,0,0,0-1.786,2.327c-1.179-.6-2.4-1.143-3.572-1.745-.276-.143-.587-.327-.633-.633-.061-.408.367-.7.663-1.021a6.007,6.007,0,0,0,1.021-2.072c.98-2.347,3.434-3.848,4.322-6.226a9.445,9.445,0,0,1,1.051-2.715,6.726,6.726,0,0,1,1.158-1.021,19.529,19.529,0,0,0,2.551-2.628,4.466,4.466,0,0,0,.842-1.23,6.084,6.084,0,0,0,.2-2.153c.046-2.378,1.123-4.593,1.781-6.879.617-2.148.878-4.4,1.689-6.491S221.465,73.308,223.639,72.747Z" transform="translate(-15.548 -29.622)" opacity="0.1"/><path d="M224.43,72.747c-.133,1.362,1.179,2.388,1.7,3.649a6.245,6.245,0,0,1,.362,1.837,88.136,88.136,0,0,1-.2,13.079,24.418,24.418,0,0,1-.536,4.312c-.735,2.975-2.551,5.557-4.312,8.057a6.836,6.836,0,0,1-.924,1.133,6.925,6.925,0,0,1-1.715,1.021l-6.078,2.944a12.072,12.072,0,0,0-2.159,1.24,5.935,5.935,0,0,0-1.786,2.327c-1.179-.6-2.4-1.143-3.572-1.745-.276-.143-.587-.327-.633-.633-.066-.408.362-.7.658-1.021a5.832,5.832,0,0,0,1.021-2.072c.975-2.347,3.434-3.848,4.322-6.226a9.445,9.445,0,0,1,1.051-2.715,6.363,6.363,0,0,1,1.158-1.021,19.53,19.53,0,0,0,2.551-2.628,4.465,4.465,0,0,0,.842-1.23,6.2,6.2,0,0,0,.2-2.153c.046-2.378,1.118-4.593,1.776-6.879.623-2.148.878-4.4,1.689-6.491S222.266,73.308,224.43,72.747Z" transform="translate(-15.548 -29.622)" fill="#8888fa"/><path d="M218.036,46.8a9.7,9.7,0,0,0-6.072,1.26,3.626,3.626,0,0,1,.811.061,9.736,9.736,0,0,1,3.74,18.074,9.736,9.736,0,0,0,1.531-19.391Z" transform="translate(-15.548 -29.622)" fill="#46455b"/><path d="M221.032,52.218a4.434,4.434,0,0,1,.077,3.409c-.046-.138-.1-.276-.158-.413-1.2-2.679-4.909-3.786-8.282-2.475a6.761,6.761,0,0,0-4,3.812c-.857-2.592.883-5.562,4.082-6.807C216.123,48.432,219.827,49.539,221.032,52.218Z" transform="translate(-15.548 -29.622)" fill="#46455b"/><g opacity="0.1"><path d="M221.052,55.417a9.741,9.741,0,0,0-6.506-8.4,9.66,9.66,0,0,0-2.582,1.021,3.625,3.625,0,0,1,.811.061,9.731,9.731,0,0,1,8.277,7.318Z" transform="translate(-15.548 -29.622)"/><path d="M222.629,48.309a9.752,9.752,0,0,0-6.506-8.4,9.844,9.844,0,0,0-2.582,1.051,3.694,3.694,0,0,1,.816.061,9.726,9.726,0,0,1,8.272,7.287Z" transform="translate(-15.548 -29.622)"/><path d="M222.67,37.7a5.873,5.873,0,0,0-3.924-5.042,5.858,5.858,0,0,0-1.561.628,2.24,2.24,0,0,1,.51.041A5.868,5.868,0,0,1,222.67,37.7Z" transform="translate(-15.548 -29.622)"/><path d="M226.313,54.091a9.752,9.752,0,0,1-7.542,10.287,9.8,9.8,0,0,1-2.255,1.817,9.736,9.736,0,0,0,9.8-12.1Z" transform="translate(-15.548 -29.622)"/></g><path d="M312.649,156a3.751,3.751,0,0,0-4.485-.219,6.361,6.361,0,0,0-1.883,3.194c-.612,1.75-1.6,3.45-1.766,5.3-.454,5.1-4.031,9.394-5.1,14.4a27.419,27.419,0,0,1-1.209,5.333,16.063,16.063,0,0,1-1.225,2.108,55.776,55.776,0,0,0-4.593,8.894,6.756,6.756,0,0,0-2.327,1.8,8.675,8.675,0,0,1-3.189,1.939,3.149,3.149,0,0,0-1.322.648c-.51.541-.51,1.413-.934,2.041a3.021,3.021,0,0,1-1.163.954,4.368,4.368,0,0,1-.071-.439c-.107-.781-.194-1.561-.276-2.342a8.838,8.838,0,0,0-1.2-11.4,17.16,17.16,0,0,1,.107-3.654,1.607,1.607,0,0,0-.51-1.623c-.25-.158-.556-.194-.822-.327a3.332,3.332,0,0,1-.959-.985,4.593,4.593,0,0,0-5.858-.867c-1.429.954-2.184,2.648-3.4,3.868-.633.628-1.383,1.123-2.011,1.75a9.053,9.053,0,0,0-2.337,4.863,26.477,26.477,0,0,0-.219,5.47,5,5,0,0,0,.235,1.633,4.292,4.292,0,0,0,.745,1.184,14.176,14.176,0,0,0,5.736,4.434,2.479,2.479,0,0,1,.026.327,2.175,2.175,0,0,1-.041.51l-.25-.041a10.374,10.374,0,0,1-2.74-.352c-1.454-.628-2.041-2.475-3.475-3.2a2.121,2.121,0,0,0-.373-.153,23.657,23.657,0,0,0-2.077-6.858,8.489,8.489,0,0,1-1.148-3.235,8.232,8.232,0,0,1,.709-3.108,80.291,80.291,0,0,0,2.725-10.716q.694-3.414,1.4-6.828a10.254,10.254,0,0,0,1.664-1.944,9.471,9.471,0,0,0,1.664-4.812,6.527,6.527,0,0,0-1.684-4.73,2.8,2.8,0,0,0-2.1-1.021,2.552,2.552,0,0,0-1.755,1.021,8.394,8.394,0,0,0-1.327,2.9,12.659,12.659,0,0,0-.791,5.215c.209,1.454.919,3.031.194,4.307-2.388,4.179-4.036,8.879-5.807,13.359a22.4,22.4,0,0,0-1.112,3.317,17.549,17.549,0,0,0-.184,5.542,73.191,73.191,0,0,0,2,10.252,13.174,13.174,0,0,0,1.689,4.409,19.014,19.014,0,0,0-.225,5.185,2.868,2.868,0,0,0,.306,1.148,4.89,4.89,0,0,0,1.051,1.077,5.241,5.241,0,0,1,1.669,4,11.87,11.87,0,0,0,.8,4.082c1.22,3.638,2.444,7.277,3.511,10.966a7.2,7.2,0,0,1,.378,2.118c0,1.021-.485,2.041-.26,3.062a10.906,10.906,0,0,1,.418,1.413,3.663,3.663,0,0,1-.143,1.1c-.663,2.883-2.582,9.532-2.25,12.477l.658-.23c-.281,3.9-1.485,7.716-1.924,11.614a38.168,38.168,0,0,0,.092,8.532,30.03,30.03,0,0,1,.327,3.822c0,1.148-.184,2.281-.23,3.424a31.191,31.191,0,0,0,.27,4.593,47.456,47.456,0,0,0,1.138,7.088c1.061,3.96.347,8.083.464,12.186a74.18,74.18,0,0,1-.087,8.588c-.107,1.209-.276,2.414-.311,3.628-.107,3.6.959,7.19.582,10.772-.179,1.679-.607,3.572.449,4.894.337.413.791.709,1.148,1.1a1.531,1.531,0,0,1,.444,1.454c-.138.4-.51.7-.6,1.123-.1.663.633,1.123,1.266,1.337l.179.051a1.577,1.577,0,0,0,.454,1.2,2.7,2.7,0,0,0,1.362.541l8.165,1.582c1.822.352,3.8.684,5.511.066a1.4,1.4,0,0,0,.383.648,2.7,2.7,0,0,0,1.357.541l8.165,1.582c2.082.4,4.368.776,6.226-.255a3.5,3.5,0,0,0,1.311-1.22,3.781,3.781,0,0,0,.179-3.189,2.608,2.608,0,0,0-.908-1.322,3.388,3.388,0,0,0-1.9-.408,3.745,3.745,0,0,1-1.643-.25,1.22,1.22,0,0,1-.408-.347c.408-.51.8-1.021,1.174-1.531-.352-.082-.51-.566-.6-.924-1.051-5.3.424-10.716.638-16.125a34.341,34.341,0,0,0-.633-8.078c-.2-1.021-.439-1.99-.582-3-.75-5.271,1.255-10.624.617-15.911-.3-2.47.76-5.052,1.138-7.511a27.006,27.006,0,0,0-.1-6.634l-1.689-17.35a20.806,20.806,0,0,0-1.47-6.874,9,9,0,0,1-.694-3.771c2.041-1.169,3.919-2.776,6.226-2.781.444-1.684-.832-7-1.577-8.568a37.379,37.379,0,0,1-3.322-19.876c.271-2.444-.7-4.909-.378-7.348a4.425,4.425,0,0,1,.469-1.638,1.689,1.689,0,0,1,1.357-.9c-.143-1.465-.332-2.939-.582-4.4a10.716,10.716,0,0,0,2.041-2.934,38.521,38.521,0,0,0,2.148-7.047c1.123-4.189,2.837-8.19,4.195-12.3s1.092-8.461,2.067-12.686a9.307,9.307,0,0,1,3.98-5.659,7.479,7.479,0,0,0,2.194-1.658,3.787,3.787,0,0,0,.612-2.087A5.343,5.343,0,0,0,312.649,156ZM281.46,334.54c.153-.209.3-.418.439-.638-.541-.031-1.225-.347-1.291-.888a5.76,5.76,0,0,1,.179-1.607,6.39,6.39,0,0,0-.168-2.812c-.189-.633-.469-1.24-.674-1.873a18.941,18.941,0,0,1-.475-2.148,36.7,36.7,0,0,0-2.322-7.547c-1.021-2.352-.23-4.919-.219-7.486a14.276,14.276,0,0,1,.122-3.618c.179-.694.51-1.337.7-2.041a8.929,8.929,0,0,0-.623-4.9c2.016-4.766,2.286-10.206,2.7-15.39q.347-4.348.694-8.675a8.247,8.247,0,0,1,.9-3.735,44.528,44.528,0,0,1,2.138,11.385,17.272,17.272,0,0,0,.388,3.327c.321,1.209.949,2.307,1.368,3.48.929,2.582.832,5.4,1.25,8.114.168,1.1.424,2.179.587,3.276.7,4.843-.434,9.747-1.567,14.508-.694,2.919-.582,6.149-.74,9.144-.148,2.873-.3,5.746-.23,8.624,0,.878.056,1.776.046,2.669a6.527,6.527,0,0,0-.837-.046,3.746,3.746,0,0,1-1.643-.25,1.873,1.873,0,0,1-.719-.867Z" transform="translate(-15.548 -29.622)" fill="url(#c)"/><path d="M299.259,338.52a3.439,3.439,0,0,1,1.9.4,2.643,2.643,0,0,1,.908,1.317,3.74,3.74,0,0,1-.184,3.169,3.475,3.475,0,0,1-1.311,1.209c-1.858,1.021-4.144.658-6.226.26l-8.165-1.567a2.714,2.714,0,0,1-1.362-.51,1.765,1.765,0,0,1-.24-2.041,3.909,3.909,0,0,1,1.531-1.531,18.659,18.659,0,0,1,7.8-2.352c1.021-.122,1.975-.449,2.74.26.408.372.388.837.959,1.138a3.818,3.818,0,0,0,1.653.245Z" transform="translate(-15.548 -29.622)" fill="#3f3d56"/><path d="M283.833,335.714a3.419,3.419,0,0,1,1.893.4,2.582,2.582,0,0,1,.908,1.317,3.72,3.72,0,0,1-.179,3.169,3.515,3.515,0,0,1-1.311,1.209c-1.857,1.021-4.144.658-6.231.26l-8.165-1.572a2.71,2.71,0,0,1-1.362-.51,1.766,1.766,0,0,1-.245-2.041,4.006,4.006,0,0,1,1.556-1.531,19.007,19.007,0,0,1,7.8-2.347c1.021-.128,1.975-.449,2.74.255.4.373.388.837.954,1.138a3.776,3.776,0,0,0,1.643.25Z" transform="translate(-15.548 -29.622)" fill="#3f3d56"/><path d="M281.822,248.965a98.091,98.091,0,0,0-14.1,1.077,2.817,2.817,0,0,0-.893.235c-.99.51-1.021,1.9-1,3.011.066,4.526-1.48,8.91-1.99,13.4a37.366,37.366,0,0,0,.087,8.476,31.673,31.673,0,0,1,.327,3.8c0,1.133-.189,2.261-.235,3.4a30.775,30.775,0,0,0,.265,4.542,46.866,46.866,0,0,0,1.138,7.042c1.056,3.934.342,8.032.454,12.1a72.089,72.089,0,0,1-.1,8.532c-.107,1.2-.276,2.4-.311,3.608-.107,3.572.954,7.144.577,10.716-.179,1.664-.612,3.572.444,4.858.337.408.791.7,1.143,1.1a1.531,1.531,0,0,1,.449,1.439c-.143.4-.536.7-.6,1.117-.1.658.628,1.118,1.26,1.327a11.665,11.665,0,0,0,13.16-4.73c-.541-.031-1.225-.347-1.291-.883a5.691,5.691,0,0,1,.179-1.6,6.22,6.22,0,0,0-.168-2.791c-.184-.633-.469-1.235-.668-1.863a18.942,18.942,0,0,1-.475-2.133,36.064,36.064,0,0,0-2.317-7.5c-1.021-2.337-.224-4.889-.214-7.43a14.345,14.345,0,0,1,.122-3.6c.179-.694.51-1.332.7-2.041a8.8,8.8,0,0,0-.623-4.868c2.041-4.736,2.3-10.165,2.71-15.309l.7-8.675a8.207,8.207,0,0,1,.9-3.71,43.953,43.953,0,0,1,2.138,11.308,16.726,16.726,0,0,0,.383,3.312c.322,1.194.944,2.286,1.368,3.455.924,2.551.827,5.363,1.245,8.057.168,1.092.418,2.164.582,3.256.7,4.812-.439,9.7-1.577,14.416-.694,2.9-.587,6.123-.745,9.088-.153,2.853-.306,5.705-.235,8.563.061,2.628.265,5.45-1.148,7.654a13.9,13.9,0,0,0,4.98,1.781,8.8,8.8,0,0,0,5.731-1.735,18.627,18.627,0,0,0,4.2-4.4c-.357-.082-.51-.566-.6-.919-1.051-5.261.429-10.665.648-16.023a34.09,34.09,0,0,0-.628-8.022c-.2-1.021-.444-1.985-.587-2.985-.74-5.236,1.266-10.558.633-15.819-.3-2.46.765-5.021,1.143-7.471a26.41,26.41,0,0,0-.092-6.562l-1.679-17.222a20.412,20.412,0,0,0-1.465-6.833c-1.194-2.551-.454-5.695-.582-8.507a35.016,35.016,0,0,1-13.359,2.96Z" transform="translate(-15.548 -29.622)" fill="#46455b"/><path d="M291.681,197.961a54.829,54.829,0,0,1,5.378-10.818,15.959,15.959,0,0,0,1.225-2.1c.745-1.653.822-3.521,1.215-5.3,1.1-4.97,4.679-9.236,5.139-14.288.163-1.842,1.153-3.531,1.771-5.271a6.411,6.411,0,0,1,1.883-3.174,3.776,3.776,0,0,1,4.48.214,5.271,5.271,0,0,1,1.811,4.292,3.776,3.776,0,0,1-.612,2.072,7.341,7.341,0,0,1-2.194,1.648,9.262,9.262,0,0,0-3.985,5.613c-.98,4.2-.714,8.512-2.077,12.6s-3.062,8.068-4.2,12.247a39.3,39.3,0,0,1-2.159,7,8.391,8.391,0,0,1-5.261,4.761,14.248,14.248,0,0,0-1.163-4.394C292.217,201.457,291.079,199.6,291.681,197.961Z" transform="translate(-15.548 -29.622)" fill="#a0616a"/><path d="M266.008,203.784a23.278,23.278,0,0,0-2.266-8.588,8.275,8.275,0,0,1-1.143-3.21,8.109,8.109,0,0,1,.709-3.087,79.571,79.571,0,0,0,2.73-10.67l1.408-6.787a10.323,10.323,0,0,0,1.658-1.929,9.359,9.359,0,0,0,1.669-4.781,6.45,6.45,0,0,0-1.679-4.7,2.8,2.8,0,0,0-2.1-.99,2.551,2.551,0,0,0-1.755,1.021,8.226,8.226,0,0,0-1.3,2.858,12.58,12.58,0,0,0-.8,5.179c.2,1.444.919,3.011.189,4.276-2.393,4.159-4.041,8.823-5.817,13.268a22.338,22.338,0,0,0-1.107,3.3,17.35,17.35,0,0,0-.194,5.511,72.339,72.339,0,0,0,1.99,10.206c.51,2.1,1.148,4.388,2.914,5.649A33.675,33.675,0,0,1,266.008,203.784Z" transform="translate(-15.548 -29.622)" fill="#a0616a"/><circle cx="8.762" cy="8.762" r="8.762" transform="translate(251.654 157.225)" fill="#a0616a"/><path d="M272.693,205.218a11.782,11.782,0,0,1-1.429,4.542c-.413.873-.954,1.847-1.9,2.041a42.477,42.477,0,0,0,8.231,2.363,9.053,9.053,0,0,0,2.939.168,7.062,7.062,0,0,0,2.342-.867,12.012,12.012,0,0,0,5.955-8.675,15.82,15.82,0,0,1-3.261.087,2.388,2.388,0,0,1-1.669-.617,2.506,2.506,0,0,1-.469-1.368q-.291-2.174-.464-4.358a17.268,17.268,0,0,0-6.251,1.434c-.816.357-1.613.771-2.455,1.077-.51.184-1.985.219-2.342.551C271.372,202.12,272.724,204.115,272.693,205.218Z" transform="translate(-15.548 -29.622)" fill="#a0616a"/><path d="M277.087,210.116a5.511,5.511,0,0,0-4.664-4.434,10.585,10.585,0,0,1-2.74-.342c-1.454-.628-2.067-2.46-3.475-3.179a3.712,3.712,0,0,0-4.276,1.153,9.528,9.528,0,0,0-1.8,4.373,21.178,21.178,0,0,0-.475,6.481,2.909,2.909,0,0,0,.311,1.143,4.955,4.955,0,0,0,1.046,1.072,5.174,5.174,0,0,1,1.669,3.97,11.635,11.635,0,0,0,.8,4.082c1.22,3.613,2.444,7.231,3.506,10.895a7.067,7.067,0,0,1,.378,2.1c-.026,1.021-.51,2.041-.26,3.036a11.865,11.865,0,0,1,.413,1.4,3.613,3.613,0,0,1-.143,1.092c-.668,2.868-2.587,9.471-2.255,12.395,4.353-1.6,10.92-2.551,15.533-3.062a34.187,34.187,0,0,1,3.822-.225c3.062,0,6.271.577,9.129-.546,2.648-1.021,4.848-3.48,7.7-3.49.444-1.669-.832-6.945-1.572-8.507a36.853,36.853,0,0,1-3.307-19.743c.265-2.429-.7-4.878-.372-7.3a4.369,4.369,0,0,1,.464-1.628,1.715,1.715,0,0,1,1.362-.9,53.576,53.576,0,0,0-2.22-11.2c-.413-1.3-1.158-2.8-2.516-2.883-1.225-.082-2.128,1.021-3.011,1.883a8.675,8.675,0,0,1-3.189,1.924,3.139,3.139,0,0,0-1.327.648c-.51.536-.51,1.408-.934,2.041-.735,1.133-2.613,1.24-3.062,2.506a7.738,7.738,0,0,0-.2,1.133,4.042,4.042,0,0,1-1.2,1.929,7.777,7.777,0,0,1-3.128,2.179Z" transform="translate(-15.548 -29.622)" fill="#2f2e41"/><path d="M282.082,185.612a1.582,1.582,0,0,0-.51-1.607,7.753,7.753,0,0,0-.827-.332,3.364,3.364,0,0,1-.954-.99,4.593,4.593,0,0,0-5.853-.857c-1.434.949-2.184,2.633-3.409,3.842-.628.628-1.378,1.118-2.011,1.745a9.006,9.006,0,0,0-2.342,4.827,26.186,26.186,0,0,0-.219,5.44,4.812,4.812,0,0,0,.235,1.623,4.312,4.312,0,0,0,.745,1.174A13.931,13.931,0,0,0,272.964,205a8.525,8.525,0,0,0,7.343-.628,1.306,1.306,0,0,0,.51-.51,1.607,1.607,0,0,0,0-.98,6.634,6.634,0,0,1,.352-3.791,25.135,25.135,0,0,0,1.133-2.577,8.624,8.624,0,0,0,.082-3.062C282.134,190.848,281.679,188.225,282.082,185.612Z" transform="translate(-15.548 -29.622)" fill="#46455b"/><path d="M430.337,321.482c0,50.2,31.5,90.831,70.42,90.831" transform="translate(-15.548 -29.622)" fill="#46455b"/><path d="M500.757,412.313c0-50.774,35.144-91.852,78.584-91.852" transform="translate(-15.548 -29.622)" fill="#8888fa"/><path d="M455.851,326c0,47.692,20.08,86.285,44.905,86.285" transform="translate(-15.548 -29.622)" fill="#8888fa"/><path d="M500.757,412.313c0-64.873,40.624-117.366,90.831-117.366" transform="translate(-15.548 -29.622)" fill="#46455b"/><ellipse cx="17.508" cy="2.96" rx="17.508" ry="2.96" transform="translate(464.643 394.096)" fill="#8888fa" opacity="0.1"/><path d="M485.938,412.926s9.986-.306,13-2.449,15.365-4.7,16.11-1.266,15.008,17.095,3.735,17.187-26.2-1.755-29.2-3.572S485.938,412.926,485.938,412.926Z" transform="translate(-15.548 -29.622)" fill="#a8a8a8"/><path d="M518.964,425.2c-11.272.092-26.2-1.755-29.2-3.572-2.286-1.4-3.2-6.394-3.5-8.706h-.337s.633,8.052,3.638,9.884,17.926,3.679,29.2,3.572c3.251-.026,4.378-1.184,4.317-2.9C522.643,424.56,521.4,425.178,518.964,425.2Z" transform="translate(-15.548 -29.622)" opacity="0.2"/><path d="M431.7,48.3a3.853,3.853,0,0,0,.7-2.143c0-4.654-9.481-8.42-21.177-8.42s-21.177,3.766-21.177,8.42a3.97,3.97,0,0,0,.832,2.388c-13.023,1.454-21.794,4.179-21.794,7.307,0,4.649,19.391,8.42,43.375,8.42s43.375-3.771,43.375-8.42C455.851,52.56,445.992,49.677,431.7,48.3Z" transform="translate(-15.548 -29.622)" fill="#8888fa" opacity="0.1"/><path d="M171.967,57.484a3.853,3.853,0,0,0,.7-2.143c0-4.654-9.481-8.42-21.177-8.42s-21.177,3.766-21.177,8.42a3.97,3.97,0,0,0,.873,2.388c-13.023,1.454-21.794,4.179-21.794,7.307,0,4.649,19.416,8.42,43.375,8.42s43.375-3.771,43.375-8.42C196.114,61.745,186.255,58.862,171.967,57.484Z" transform="translate(-15.548 -29.622)" fill="#8888fa" opacity="0.1"/><path d="M320.839,50.411a2.929,2.929,0,0,1,3.613,1.082,8.981,8.981,0,0,1,1.25,3.888c.454,3.021.786,6.486-1.25,8.757A28.47,28.47,0,0,1,347.925,45.2" transform="translate(-15.548 -29.622)" fill="none" stroke="#8888fa" stroke-miterlimit="10" stroke-width="1.531" opacity="0.1"/><path d="M150.642,101.94a1.905,1.905,0,0,1,2.322.694,5.465,5.465,0,0,1,.806,2.5c.291,1.944.51,4.169-.8,5.613a18.284,18.284,0,0,1,15.079-12.181" transform="translate(-15.548 -29.622)" fill="none" stroke="#8888fa" stroke-miterlimit="10" stroke-width="1.531" opacity="0.1"/><path d="M380.272,117.249a1.905,1.905,0,0,1,2.322.694,5.465,5.465,0,0,1,.806,2.5c.291,1.944.51,4.169-.8,5.613a18.284,18.284,0,0,1,15.079-12.181" transform="translate(-15.548 -29.622)" fill="none" stroke="#8888fa" stroke-miterlimit="10" stroke-width="1.531" opacity="0.1"/><path d="M361.448,288.823v-12.4l5.715,5.715,1.429-1.48-8.165-8.165-8.165,8.165,1.429,1.424,5.715-5.659v12.4Z" transform="translate(-15.548 -29.622)" fill="#8888fa" opacity="0.1"/><path d="M237.958,329.647v-12.4l5.715,5.715,1.429-1.48-8.165-8.165-8.165,8.165,1.429,1.424,5.715-5.659v12.4Z" transform="translate(-15.548 -29.622)" fill="#8888fa" opacity="0.1"/><path d="M328.789,365.877v-12.4l5.715,5.715,1.429-1.48-8.165-8.165-8.165,8.165,1.429,1.424,5.715-5.659v12.4Z" transform="translate(-15.548 -29.622)" fill="#8888fa" opacity="0.1"/></g></g></svg>