<svg xmlns="http://www.w3.org/2000/svg" xmlns:xlink="http://www.w3.org/1999/xlink" width="541.853" height="400" viewBox="0 0 541.853 400"><defs><linearGradient id="a" x1="0.5" y1="1" x2="0.5" gradientUnits="objectBoundingBox"><stop offset="0" stop-color="gray" stop-opacity="0.251"/><stop offset="0.54" stop-color="gray" stop-opacity="0.122"/><stop offset="1" stop-color="gray" stop-opacity="0.102"/></linearGradient><linearGradient id="b" y2="0" xlink:href="#a"/><linearGradient id="d" x1="16.117" x2="16.117" y2="0" xlink:href="#a"/></defs><g transform="translate(-0.006 -0.011)"><path d="M114.919,331.747c-6.5,1.056-14.645,4.077-14.569,11.1.038,3.562,2.4,6.6,4.7,9.2a174.874,174.874,0,0,0,33.2,29.328c5.858,3.968,12.154,7.764,16.047,13.9s4.873,13.941,5.181,21.369a164.25,164.25,0,0,1-6.139,52.11c19.074,3.633,40.345,6.816,56.241-4.656,9.518-6.87,15.955-18.381,26.561-23.145,7.082-3.183,15.1-2.9,22.82-2.5q54.817,2.886,109.364,10.828c15.23,2.22,30.752,4.732,45.819,1.862s29.891-12.23,35.446-27.406c.855-2.339,1.624-4.948,3.541-6.356,1.732-1.256,4-1.229,6.107-1.153l127.273,4.375c6.973.238,14.19.433,20.573-2.436,6.188-2.777,10.947-8.121,15.528-13.356,10.476-11.943,21.743-26.637,18.662-42.847-2.463-12.994-13.476-22.073-24.4-28.429s-22.966-11.559-30.99-21.721c-12.209-15.468-11.727-37.606-12.485-57.676a320.387,320.387,0,0,0-6.686-54.048c-3.308-15.641-7.915-31.3-16.529-44.514s-21.786-23.789-36.686-25.728c-19.458-2.534-39.019,9.6-58.055,4.45-16.08-4.331-27.146-19.723-40.47-30.389-23.665-18.949-54.72-22.918-84.08-23.28-31.131-.4-63.084,2.756-90.831,17.374-6.356,3.346-12.571,7.4-16.973,13.308-6.746,9.069-8.381,21.25-12.793,31.851-17.785,42.684-75.629,51.888-94.4,94.118-6.665,14.981-6.6,32.452-1.743,48.185,5.225,16.93,19.929,26.28,25.76,41.038C133.646,330.545,122.525,330.508,114.919,331.747Z" transform="translate(-99.941 -80.59)" fill="#8888fa" opacity="0.1"/><g transform="translate(466.709 80.283)" opacity="0.2"><path d="M985.15,367.936s2.6-34.525,22.111-53.285a52.462,52.462,0,0,0,15.609-29.285,88.256,88.256,0,0,0,1.083-16.1" transform="translate(-972.415 -247.395)" fill="none" stroke="#535461" stroke-miterlimit="10" stroke-width="2"/><path d="M1067.411,238.846c-1.44,3.79-12.506,12.241-12.506,12.241s-2.707-13.649-1.278-17.455a7.371,7.371,0,0,1,13.79,5.214Z" transform="translate(-1003.627 -228.866)" fill="#8888fa"/><path d="M1071.232,282.937c-3.276,2.415-17.152,3.476-17.152,3.476s5.138-12.934,8.414-15.349a7.369,7.369,0,1,1,8.738,11.868Z" transform="translate(-1004.026 -247.56)" fill="#8888fa"/><path d="M1045.642,347.976c-4.05.428-16.562-5.658-16.562-5.658s10.963-8.57,15.008-9a7.372,7.372,0,0,1,1.554,14.661Z" transform="translate(-992.561 -276.747)" fill="#8888fa"/><path d="M1014.012,393.838c-3.92,1.083-17.282-2.777-17.282-2.777s9.356-10.287,13.275-11.407a7.37,7.37,0,0,1,4.006,14.185Z" transform="translate(-977.725 -297.888)" fill="#8888fa"/><path d="M1026.238,282.995c1.727,3.687,13.411,11.245,13.411,11.245s1.662-13.817-.065-17.5a7.37,7.37,0,0,0-13.346,6.259Z" transform="translate(-990.937 -248.874)" fill="#8888fa"/><path d="M989.574,335.288c2.75,3,16.161,6.719,16.161,6.719s-2.55-13.681-5.3-16.681a7.371,7.371,0,1,0-10.866,9.962Z" transform="translate(-973.553 -272.006)" fill="#8888fa"/><path d="M962.8,393.222c2.2,3.422,14.8,9.35,14.8,9.35s-.2-13.914-2.4-17.325a7.371,7.371,0,0,0-12.393,7.986Z" transform="translate(-961.628 -299.032)" fill="#8888fa"/></g><path d="M164.14,87.83V337.418H565.213V87.83Z" transform="translate(-75.271 -40.273)" fill="url(#a)"/><rect width="392.6" height="19.063" transform="translate(93.108 50.193)" fill="#f6f7f9"/><g transform="translate(93.108 50.193)" opacity="0.2"><rect width="392.6" height="19.063" fill="#8888fa"/></g><rect width="392.6" height="225.251" transform="translate(93.108 69.256)" fill="#f6f7f9"/><circle cx="4.239" cy="4.239" r="4.239" transform="translate(98.284 55.369)" fill="#f6f7f9"/><circle cx="4.239" cy="4.239" r="4.239" transform="translate(109.578 55.369)" fill="#f6f7f9"/><circle cx="4.239" cy="4.239" r="4.239" transform="translate(120.877 55.369)" fill="#f6f7f9"/><g transform="translate(106.757 97.269)" opacity="0.2"><rect width="201.949" height="14.591" fill="#8888fa"/></g><g transform="translate(360.486 97.269)" opacity="0.2"><rect width="105.915" height="14.591" fill="#8888fa"/></g><g transform="translate(146.063 168.35)" opacity="0.2"><rect width="14.12" height="46.604" transform="translate(0 66.847)" fill="#8888fa"/><rect width="14.12" height="80.025" transform="translate(27.303 33.421)" fill="#8888fa"/><rect width="14.12" height="113.446" transform="translate(54.606)" fill="#8888fa"/><rect width="14.12" height="102.623" transform="translate(81.909 10.828)" fill="#8888fa"/><rect width="14.12" height="70.61" transform="translate(109.212 42.836)" fill="#8888fa"/></g><g transform="translate(360.254 143.873)" opacity="0.2"><rect width="105.915" height="130.159" fill="#8888fa"/></g><path d="M1034.187,466.944c-.677-3.443-1.976-6.811-2.009-10.319-.049-5.7,2.983-12.312-1-16.518-.91-.958-2.128-1.673-2.8-2.794a6.148,6.148,0,0,1-.7-3.151c-.065-6.643,3.595-13.389,1.4-19.685a6.691,6.691,0,0,0-2.512-3.5,7.288,7.288,0,0,0-4.261-.953c-1.4,0-2.88.157-4.331.184a9.36,9.36,0,0,1-2.431-.319c-1.678-.476-3.1-1.576-4.764-2.117a7.787,7.787,0,0,0-2.707-.374c-3.638-.119-6.963,2.3-9.55,4.645a35.664,35.664,0,0,1-4.088,2.972c.217-.152-5.051,3.465-3.07,3.5a6.9,6.9,0,0,1,3.92,1.364,10.59,10.59,0,0,0,.541,12.279c-.861-.845-1.814-1.77-2.788-2.707-2.9-2.853-6.957-6.681-8.863-7.726a62.724,62.724,0,0,1-7.612-5.344s-5.82,3.248-4.028,7.758a18.1,18.1,0,0,1,2.5.98,4.672,4.672,0,0,0,.341,1.749,19.274,19.274,0,0,1,5.17,2.534,8.839,8.839,0,0,1,.5.774c.774,1.353,3.183,3.817,6.129,6.556,2.068,2.074,4.792,4.553,7.5,6.941a14.587,14.587,0,0,0-1.83,4.873,6.01,6.01,0,0,1-.612-.281c-4.028-2.166-13.427-1.938-13.427-1.938a19.639,19.639,0,0,1-9.4-13.356s-1.565-5.6-1.121-7.109h-.027l.2-.043,1.879-3.405a1.505,1.505,0,0,0-1.234-2.209c-9.161-.823-9.594,7.58-9.594,7.58h.081l-.027.07c1.121,5.387,2.014,4.954,1.792,9.263l3.579,9.48s.222,3.248,6.714,7.542a140.281,140.281,0,0,1,13.876,10.991s-3.914,2.047-2.463,11.418c1.776,11.456-.893,27.8-.893,27.8V514.9l.5-.135c-.065.352-.125.726-.189,1.132a59.448,59.448,0,0,0-.309,16.031c1.343,11.207,6.714,26.529,6.714,26.529a47.974,47.974,0,0,1,2.463,9.7,8.936,8.936,0,0,0,.574,2.49,19.582,19.582,0,0,1,1.57,7.477,52.644,52.644,0,0,0,3.449,18.9c2.268,5.76,3.113,9.139,3.362,11.11-1.624,2.1-3.714,4.391-5.376,4.618-3.135.433-9.177.861-5.149,6.031a3.684,3.684,0,0,0,.466.493c-3.059.487-6.421,1.559-3.151,5.755,4.028,5.17,27.747,2.8,27.747,2.8s.152-2.875,0-6.031c1.662-.114,2.707-.217,2.707-.217s.671-12.5-2.236-14.006a6.283,6.283,0,0,0-1.57.379c-.314-1.727-.541-3.876-.7-5.463l1.153-.087v-.087h.07v-18.83s-1.343-11.635-6.264-16.784a10.46,10.46,0,0,1-1.624-2.166l-.065-.135c.032-1.473.032-3.46,0-5.739l.07-.125c.087-.141.173-.265.255-.379a4.688,4.688,0,0,1,.368-.433l.07-.092h0s2.707-3.248,11.862-23.7c5.593-12.485,4.115-19.491,2.112-23.1-.422-1.624-1.3-5.262-2.409-11.494a45.07,45.07,0,0,1-.644-8.007,16.1,16.1,0,0,0,4.245.477,14.412,14.412,0,0,0,6.5-1.386c-1.462-2.133-2.989-4.634-2.252-7.087.834-2.794,4.136-4.077,6.042-6.329C1034.8,474.28,1034.864,470.393,1034.187,466.944Z" transform="translate(-493.943 -230.453)" fill="url(#b)"/><path d="M989.177,428.25s-5.555,3.205-3.844,7.693c0,0,5.771,1.711,8.121,5.983s20.514,19.658,20.514,19.658l13.265-6.621s-4.607-6.15-19.182-10.449c0,0-8.592-9.2-11.586-10.92A64.821,64.821,0,0,1,989.177,428.25Z" transform="translate(-505.64 -240.02)" fill="#797c9c"/><path d="M994.177,433.25s-5.555,3.205-3.844,7.693c0,0,5.771,1.711,8.121,5.982s20.514,19.658,20.514,19.658l13.264-6.621s-4.607-6.15-19.182-10.449c0,0-8.592-9.2-11.586-10.92A64.825,64.825,0,0,1,994.177,433.25Z" transform="translate(-507.933 -242.313)" opacity="0.05"/><path d="M108.06,722.137s-31.217,18.835,26.329,47.833c0,0,12.68-23.54-1.337-42.733a18.9,18.9,0,0,0-24.52-5.371Z" transform="translate(-99.6 -373.565)" fill="#8888fa"/><path d="M115.88,723.67S142.6,744.108,141.867,771.9" transform="translate(-107.063 -375.498)" fill="none" stroke="#535461" stroke-miterlimit="10" stroke-width="1"/><path d="M163.374,723.588s-9.783-33.237,1.819-57.66a52.462,52.462,0,0,0,4.245-32.912,88.25,88.25,0,0,0-4.661-15.446" transform="translate(-127.076 -326.841)" fill="none" stroke="#535461" stroke-miterlimit="10" stroke-width="2"/><path d="M170.127,582.756c0,4.071-7.369,15.874-7.369,15.874s-7.369-11.8-7.369-15.874a7.371,7.371,0,0,1,14.742,0Z" transform="translate(-125.182 -307.496)" fill="#8888fa"/><path d="M192.563,621.048c-2.214,3.416-14.813,9.318-14.813,9.318s.227-13.914,2.442-17.325a7.37,7.37,0,1,1,12.371,8.013Z" transform="translate(-135.436 -323.221)" fill="#8888fa"/><path d="M189.313,690c-3.633,1.835-17.493.541-17.493.541s7.222-11.911,10.855-13.73a7.37,7.37,0,1,1,6.638,13.161Z" transform="translate(-132.717 -353.646)" fill="#8888fa"/><path d="M176.736,744.257c-3.248,2.42-17.146,3.514-17.146,3.514s5.105-12.945,8.381-15.365a7.37,7.37,0,0,1,8.765,11.851Z" transform="translate(-127.108 -378.842)" fill="#8888fa"/><path d="M147.265,638.624c2.918,2.837,16.524,5.777,16.524,5.777s-3.33-13.535-6.253-16.35a7.376,7.376,0,1,0-10.287,10.574Z" transform="translate(-120.425 -330.689)" fill="#8888fa"/><path d="M131.477,700.479c3.633,1.835,17.493.541,17.493.541s-7.222-11.911-10.855-13.73a7.37,7.37,0,1,0-6.638,13.161Z" transform="translate(-112.357 -358.452)" fill="#8888fa"/><path d="M126.929,764.157c3.248,2.42,17.146,3.514,17.146,3.514s-5.105-12.945-8.381-15.365a7.37,7.37,0,0,0-8.765,11.851Z" transform="translate(-110.76 -387.968)" fill="#8888fa"/><path d="M170.127,582.756c0,4.071-7.369,15.874-7.369,15.874s-7.369-11.8-7.369-15.874a7.371,7.371,0,0,1,14.742,0Z" transform="translate(-125.182 -307.496)" opacity="0.25"/><path d="M192.563,621.048c-2.214,3.416-14.813,9.318-14.813,9.318s.227-13.914,2.442-17.325a7.37,7.37,0,1,1,12.371,8.013Z" transform="translate(-135.436 -323.221)" opacity="0.25"/><path d="M189.313,690c-3.633,1.835-17.493.541-17.493.541s7.222-11.911,10.855-13.73a7.37,7.37,0,1,1,6.638,13.161Z" transform="translate(-132.717 -353.646)" opacity="0.25"/><path d="M176.736,744.257c-3.248,2.42-17.146,3.514-17.146,3.514s5.105-12.945,8.381-15.365a7.37,7.37,0,0,1,8.765,11.851Z" transform="translate(-127.108 -378.842)" opacity="0.25"/><path d="M147.265,638.624c2.918,2.837,16.524,5.777,16.524,5.777s-3.33-13.535-6.253-16.35a7.376,7.376,0,1,0-10.287,10.574Z" transform="translate(-120.425 -330.689)" opacity="0.25"/><path d="M131.477,700.479c3.633,1.835,17.493.541,17.493.541s-7.222-11.911-10.855-13.73a7.37,7.37,0,1,0-6.638,13.161Z" transform="translate(-112.357 -358.452)" opacity="0.25"/><path d="M126.929,764.157c3.248,2.42,17.146,3.514,17.146,3.514s-5.105-12.945-8.381-15.365a7.37,7.37,0,0,0-8.765,11.851Z" transform="translate(-110.76 -387.968)" opacity="0.25"/><path d="M205.188,724.758s-9.783-33.215,1.835-57.66a52.462,52.462,0,0,0,4.245-32.912,88.245,88.245,0,0,0-4.661-15.446" transform="translate(-146.253 -327.378)" fill="none" stroke="#535461" stroke-miterlimit="10" stroke-width="2"/><path d="M211.937,583.956c0,4.071-7.369,15.874-7.369,15.874s-7.369-11.8-7.369-15.874a7.371,7.371,0,0,1,14.742,0Z" transform="translate(-144.356 -308.046)" fill="#8888fa"/><path d="M234.383,622.208c-2.214,3.416-14.813,9.318-14.813,9.318s.227-13.914,2.442-17.325a7.37,7.37,0,1,1,12.371,8.013Z" transform="translate(-154.615 -323.753)" fill="#8888fa"/><path d="M231.123,691.16c-3.633,1.835-17.493.541-17.493.541s7.222-11.911,10.855-13.73a7.382,7.382,0,1,1,6.638,13.189Z" transform="translate(-151.891 -354.179)" fill="#8888fa"/><path d="M218.546,745.427c-3.248,2.42-17.146,3.514-17.146,3.514s5.105-12.945,8.381-15.365a7.37,7.37,0,0,1,8.765,11.851Z" transform="translate(-146.282 -379.378)" fill="#8888fa"/><path d="M189.1,639.784c2.918,2.837,16.524,5.777,16.524,5.777s-3.33-13.535-6.253-16.35a7.376,7.376,0,1,0-10.287,10.574Z" transform="translate(-139.608 -331.221)" fill="#8888fa"/><path d="M173.287,701.638c3.633,1.835,17.493.541,17.493.541s-7.222-11.911-10.855-13.73a7.37,7.37,0,0,0-6.638,13.162Z" transform="translate(-131.531 -358.984)" fill="#8888fa"/><path d="M168.739,765.327c3.248,2.42,17.146,3.514,17.146,3.514S180.78,755.9,177.5,753.476a7.37,7.37,0,1,0-8.765,11.851Z" transform="translate(-129.934 -388.504)" fill="#8888fa"/><rect width="515.959" height="3.79" transform="translate(13.289 396.221)" fill="#8888fa"/><rect width="109.348" height="134.377" transform="translate(378.028 184.532)" fill="url(#a)"/><rect width="105.915" height="130.159" transform="translate(379.744 186.644)" fill="#8888fa"/><rect width="21.656" height="21.656" transform="translate(386.858 198.067)" fill="#e8eaf1"/><rect width="76.879" height="4.331" transform="translate(397.686 232.717)" fill="#e8eaf1"/><rect width="76.879" height="4.331" transform="translate(397.686 241.921)" fill="#e8eaf1"/><rect width="76.879" height="4.331" transform="translate(397.686 251.125)" fill="#e8eaf1"/><rect width="76.879" height="4.331" transform="translate(397.686 260.329)" fill="#e8eaf1"/><rect width="76.879" height="4.331" transform="translate(397.686 269.533)" fill="#e8eaf1"/><rect width="76.879" height="4.331" transform="translate(397.686 278.737)" fill="#e8eaf1"/><rect width="76.879" height="4.331" transform="translate(397.686 287.94)" fill="#e8eaf1"/><path d="M1049.955,764.89s.639,9.4,1.711,10.471-9.615,1.711-9.615,1.711l1.494-12.182Z" transform="translate(-531.8 -394.402)" fill="#ffb9b9"/><path d="M1049.955,764.89s.639,9.4,1.711,10.471-9.615,1.711-9.615,1.711l1.494-12.182Z" transform="translate(-531.8 -394.402)" opacity="0.05"/><path d="M1039.285,775.774s-1.494,0-6.838,2.777c0,0-3.633-.639-5.127-5.771,0,0-4.488,7.693-7.477,8.121s-8.76.855-4.916,5.982,26.5,2.777,26.5,2.777S1042.057,777.268,1039.285,775.774Z" transform="translate(-518.776 -398.02)" fill="#e4e2f3"/><path d="M1039.285,775.774s-1.494,0-6.838,2.777c0,0-3.633-.639-5.127-5.771,0,0-4.488,7.693-7.477,8.121s-8.76.855-4.916,5.982,26.5,2.777,26.5,2.777S1042.057,777.268,1039.285,775.774Z" transform="translate(-518.776 -398.02)" opacity="0.05"/><path d="M1045.481,785.121l-1.494,4.061-9.827-2.777.541-4.028.135-.975.374-2.707s8.332-2.139,8.332-1.083a16.59,16.59,0,0,0,.541,2.6c.341,1.316.769,2.81,1.083,3.79C1045.351,784.693,1045.481,785.121,1045.481,785.121Z" transform="translate(-528.182 -400.101)" fill="#ffb9b9"/><path d="M1035.476,646.054a5.842,5.842,0,0,0,0,5.955,10.355,10.355,0,0,0,1.538,2.128c4.7,5.127,5.982,16.664,5.982,16.664v18.586l-3.205.244-5.127.4L1026.97,658.4s-4.488-23.075-2.35-27.135,4.061-29.485,4.061-29.485l1.776-1.835,4.207-4.358h12.182a8.19,8.19,0,0,1,2.371,2.647c2.047,3.384,3.882,10.422-1.727,23.416-8.76,20.3-11.326,23.5-11.326,23.5a4.922,4.922,0,0,0-.687.9Z" transform="translate(-523.542 -316.761)" fill="#4c4c78"/><path d="M1035.606,645.884a5.842,5.842,0,0,0,0,5.955,10.353,10.353,0,0,0,1.537,2.128c4.7,5.127,5.983,16.664,5.983,16.664v18.586l-3.205.244-5.127.4-7.693-31.623s-4.488-23.075-2.35-27.135,4.061-29.485,4.061-29.485l1.776-1.835,4.207-4.358h12.182a8.191,8.191,0,0,1,2.371,2.647c2.047,3.384,3.882,10.422-1.727,23.416-8.76,20.3-11.326,23.5-11.326,23.5A4.917,4.917,0,0,0,1035.606,645.884Z" transform="translate(-523.602 -316.683)" opacity="0.05"/><path d="M1044.693,780.243l-9.253,1.159.374-2.707s8.332-2.139,8.332-1.083A16.589,16.589,0,0,0,1044.693,780.243Z" transform="translate(-528.769 -400.101)" opacity="0.1"/><path d="M1024.687,615.959s.542,16.821.617,27.39V649.3a13.18,13.18,0,0,1-.173,2.344c-.639,1.922.639,6.194.639,6.194a61.673,61.673,0,0,1,3.844,26.5v9.4l-10.254,1.283s1.711-1.283-2.994-13.676a54.011,54.011,0,0,1-3.3-18.743,20.059,20.059,0,0,0-1.5-7.417,9.153,9.153,0,0,1-.541-2.469,49.042,49.042,0,0,0-2.35-9.615s-5.127-15.159-6.41-26.28a61.18,61.18,0,0,1,.3-15.9,39.666,39.666,0,0,1,.769-3.974s20.887-13.145,28.776-4.061a10.287,10.287,0,0,1,1.781,2.994,19.746,19.746,0,0,1,1.007,3.33C1037.351,611.259,1024.687,615.959,1024.687,615.959Z" transform="translate(-513.382 -314.055)" fill="#4c4c78"/><circle cx="10.898" cy="10.898" r="10.898" transform="translate(499.774 186.525)" fill="#ffb9b9"/><path d="M1031.194,452.218s4.488,12.6,0,19.231,14.315,4.488,14.315,4.488l7.266-8.76s-8.549,0-8.976-14.959S1031.194,452.218,1031.194,452.218Z" transform="translate(-526.504 -247.963)" fill="#ffb9b9"/><path d="M1040.217,598.006a28.052,28.052,0,0,1-4.759,1.191c-2.658.411-5.8.428-7.634-1.191-1.083-.958-3.79-1.083-6.99-.769a119.827,119.827,0,0,0-17.715,3.676,39.7,39.7,0,0,1,.769-3.974s20.887-13.145,28.776-4.06h4.559a8.19,8.19,0,0,1,2.371,2.647C1039.99,597.227,1040.217,598.006,1040.217,598.006Z" transform="translate(-513.947 -314.051)" opacity="0.1"/><path d="M1045.481,789.4l-1.494,4.061-9.827-2.777.541-4.028c1.689,3.736,4.569,4.245,4.569,4.245a34.859,34.859,0,0,1,5.88-2.577C1045.351,788.977,1045.481,789.4,1045.481,789.4Z" transform="translate(-528.182 -404.385)" opacity="0.1"/><path d="M1034.535,787.224s-1.494,0-6.838,2.777c0,0-3.633-.639-5.127-5.771,0,0-4.488,7.693-7.477,8.121s-8.76.855-4.916,5.983,26.5,2.777,26.5,2.777S1037.313,788.718,1034.535,787.224Z" transform="translate(-516.598 -403.271)" fill="#e4e2f3"/><path d="M962.62,442.672s.417-8.321,9.161-7.509a1.494,1.494,0,0,1,1.18,2.166l-1.792,3.373Z" transform="translate(-495.374 -243.165)" fill="#ffb9b9"/><path d="M1013.133,468.01s-10.471-1.711-13.248-3.844c0,0-2.138,4.06-5.982,1.922s-12.82-1.922-12.82-1.922a19.377,19.377,0,0,1-8.977-13.248s-1.494-5.555-1.083-7.038c0,0-5.555-5.771-8.332,1.922,1.083,5.344,1.922,4.916,1.711,9.2l3.416,9.4s.211,3.205,6.41,7.477a137.067,137.067,0,0,1,13.248,10.9s-3.741,2.03-2.35,11.326c1.7,11.37-.855,27.563-.855,27.563V532.14s21.369-6.194,25-2.994,12.393,0,12.393,0a119.4,119.4,0,0,1-2.566-12.393,54.318,54.318,0,0,1,.211-17.325s5.555-14.742,8.121-20.725-1.922-14.077-6.41-17.092-6.156-1.2-6.156-1.2S1022.748,466.088,1013.133,468.01Z" transform="translate(-495.406 -246.235)" fill="#797c9c"/><path d="M1005.15,545.514s1.705-.411,10.249-1.695,23.5,1.711,23.5,1.711" transform="translate(-514.878 -292.873)" opacity="0.05"/><path d="M1018.428,422.807c4.873.1,8.478,6.112,6.318,10.449-.947,1.906-2.783,3.584-2.593,5.7a20.6,20.6,0,0,0,.823,2.777c1.023,4.331-4.158,8.386-2.972,12.663a9.144,9.144,0,0,0,1.852,3.1l9,11.337a8.518,8.518,0,0,1,1.343,2.079,8.769,8.769,0,0,1,.39,3.33c-.043,5.414.309,11.223,3.5,15.614a14.347,14.347,0,0,0,17.482,4.228c-1.4-2.117-2.853-4.6-2.166-7.038.8-2.767,3.947-4.044,5.766-6.275,2.2-2.707,2.252-6.551,1.624-9.967s-1.889-6.757-1.917-10.233c-.043-5.647,2.848-12.209-.958-16.377-.872-.953-2.03-1.657-2.68-2.772a6.3,6.3,0,0,1-.671-3.129c-.06-6.583,3.432-13.281,1.337-19.523a6.631,6.631,0,0,0-2.4-3.476c-2.967-2-7.082-.06-10.514-1.083-1.624-.471-2.961-1.565-4.548-2.1-4.277-1.446-8.235,1.456-11.191,4.239a34.1,34.1,0,0,1-3.9,2.945C1021.563,419.185,1016.533,422.769,1018.428,422.807Z" transform="translate(-520.771 -232.444)" opacity="0.1"/><path d="M1019.428,422.807c4.873.1,8.478,6.112,6.318,10.449-.948,1.906-2.783,3.584-2.593,5.7a20.6,20.6,0,0,0,.823,2.777c1.023,4.331-4.158,8.386-2.972,12.663a9.142,9.142,0,0,0,1.852,3.1l9,11.337a8.517,8.517,0,0,1,1.343,2.079,8.765,8.765,0,0,1,.39,3.33c-.043,5.414.308,11.223,3.5,15.614a14.347,14.347,0,0,0,17.482,4.228c-1.4-2.117-2.853-4.6-2.166-7.038.8-2.767,3.947-4.044,5.766-6.275,2.2-2.707,2.252-6.551,1.624-9.967s-1.89-6.757-1.917-10.233c-.043-5.647,2.848-12.209-.958-16.377-.872-.953-2.03-1.657-2.68-2.772a6.3,6.3,0,0,1-.671-3.129c-.059-6.583,3.432-13.281,1.337-19.523a6.632,6.632,0,0,0-2.4-3.476c-2.967-2-7.082-.06-10.514-1.083-1.624-.471-2.962-1.565-4.548-2.1-4.277-1.446-8.235,1.456-11.191,4.239a34.1,34.1,0,0,1-3.9,2.945C1022.563,419.185,1017.533,422.769,1019.428,422.807Z" transform="translate(-521.23 -232.444)" fill="#b36362"/><path d="M672.673,531.1a18.775,18.775,0,0,1-3.2-3.925,14.251,14.251,0,0,0-7.157-5.322V520.9h.13l-.06-.888h.06l-.152-2.35h0l-.763-11.738s-2.761-7.867,2.111-15.067.3-14.109-4.277-16.811c0,0-2.166-11.407-.3-14.109a78.653,78.653,0,0,0-7.688-3.914q-.06-.211-.114-.433c-.049-1.083-.114-2.128-.173-3.189a11.656,11.656,0,0,1,.3-1.624q.089-.333.195-.682a11.711,11.711,0,0,0,7.477-10.861,11.5,11.5,0,0,0-.726-4.028,5.133,5.133,0,0,0,.541-1.278,5.214,5.214,0,0,0-.725-3.747,13.51,13.51,0,0,0-6.5-6.085c-3.178-1.3-7.964-.991-11.272-.6-1.857.222-3.979.85-4.651,2.566a17.746,17.746,0,0,0-.422,1.976c-.693,2.62-3.7,3.844-5.555,5.847a13.955,13.955,0,0,0-2.891,6.5,59.982,59.982,0,0,0-1.083,20.395c.19,1.57.439,3.129.7,4.689-1.115,1.57-2.122,4.331-1.662,9.2l-3.665,17.412-1.527,10.205a8.922,8.922,0,0,0,2.75,7.807,68.75,68.75,0,0,1,6.925,8.695,20.7,20.7,0,0,0-1.115,6.919c.038,1.083.1,2.106.173,3.091a27.526,27.526,0,0,0,1.17,6.118c.428,4.19,1.278,9.55,2.934,12.994l.612,18.31s-.915,16.811-2.75,20.113,3.974,31.223,3.974,31.223v3.9l-.98,2.859-.244-.184c-4.586,5.706,0,7.807,0,7.807s1.245.06,3.248.135a3.687,3.687,0,0,0,1.954,4.066s25.987,1.2,30.568,0,3.362-5.414.915-5.105a11.178,11.178,0,0,1-3.66-.482c1.429-1.673.287-3.941-1.532-3.719-2.447.3-7.948-1.879-7.948-1.879V625a4.121,4.121,0,0,0-.541-.162,61.3,61.3,0,0,1-6.047-1.705c-1.18-2.528-3.9-9.328-1.949-14.618a26.249,26.249,0,0,0,1.169-8.63A98.576,98.576,0,0,1,653.28,572.5l3.665-12.6s5.2-15.311,5.5-19.491l-.043-6.129c4.3,2.767,7.71,1.927,9.891.644a2.355,2.355,0,0,0,.379-3.822Zm-40.795-31.845c.1-.439.189-.92.265-1.424h2.166a11.153,11.153,0,0,1,1.083,5.907C633.736,503.2,631.256,501.912,631.879,499.259Z" transform="translate(-338.039 -237.685)" fill="url(#d)"/><path d="M646.7,784.846l-1.175,3.53,3.822,3.822L662,795.138l9.117-.883-.59-3.248h0a3.9,3.9,0,0,0-2.9-2.848c-3.746-.883-10.893-2.886-12.4-5.679Z" transform="translate(-349.958 -402.468)" fill="#db8b8b"/><path d="M646.7,784.846l-1.175,3.53,3.822,3.822L662,795.138l9.117-.883-.59-3.248h0a3.9,3.9,0,0,0-2.9-2.848c-3.746-.883-10.893-2.886-12.4-5.679Z" transform="translate(-349.958 -402.468)" opacity="0.1"/><path d="M666.511,797.643l-1.765-2.355,1.765-2.707s5.295,2.139,7.645,1.841,3.53,3.822-.883,5-29.415,0-29.415,0-4.412-2.057,0-7.645l3.822,2.94s6.5,3.53,9.707,2.94Z" transform="translate(-348.292 -406.733)" fill="#474463"/><path d="M680.336,801.884l-9.117.883L658.582,799.8l-3.822-3.79.314-.937.439-1.31.428-1.283,8.527-2.355a5.283,5.283,0,0,0,1.727,1.733c2.772,1.895,7.747,3.248,10.666,3.947a3.065,3.065,0,0,1,.363.108,3.887,3.887,0,0,1,2.534,2.74Z" transform="translate(-354.191 -405.977)" fill="#db8b8b"/><path d="M680.336,806.075l-9.117.883L658.582,804l-3.822-3.79.314-.937,3.514,2.707s6.5,3.53,9.707,2.94h9.117l-1.765-2.355,1.586-2.447a3.887,3.887,0,0,1,2.534,2.74Z" transform="translate(-354.191 -410.168)" opacity="0.1"/><path d="M675.741,805.243l-1.765-2.355,1.765-2.707s5.295,2.139,7.645,1.841,3.53,3.822-.883,5-29.414,0-29.414,0-4.412-2.057,0-7.645l3.822,2.94s6.5,3.53,9.707,2.94Z" transform="translate(-352.525 -410.219)" fill="#474463"/><path d="M671.04,481.917s-14.12,1.473-12.057-4.412a10.589,10.589,0,0,0,.433-5.192,14.4,14.4,0,0,0-2.5-5.982l13.237,2.057a16.577,16.577,0,0,0-1.792,4.25C666.79,478.88,671.04,481.917,671.04,481.917Z" transform="translate(-355.181 -257.483)" fill="#db8b8b"/><path d="M638.46,619s.292,12.647,3.248,18.825l.59,17.942s-.883,16.47-2.647,19.707,3.822,30.589,3.822,30.589v4.7s9.4,3.519,12.063-.6l-2.647-35,1.175-48.532Z" transform="translate(-346.716 -327.497)" fill="#474463"/><path d="M638.46,619s.292,12.647,3.248,18.825l.59,17.942s-.883,16.47-2.647,19.707,3.822,30.589,3.822,30.589v4.7s9.4,3.519,12.063-.6l-2.647-35,1.175-48.532Z" transform="translate(-346.716 -327.497)" opacity="0.1"/><path d="M624.783,544l-1.765,4.7-1.473,10a8.847,8.847,0,0,0,2.647,7.645c3.53,3.53,8.235,10.882,8.235,10.882l5.587-16.784s-5.587-.883-4.7-4.7.59-10.882.59-10.882Z" transform="translate(-338.918 -293.102)" fill="#cbcdda"/><path d="M624.783,543l-1.765,4.7-1.473,10a8.847,8.847,0,0,0,2.647,7.645c3.53,3.53,8.235,10.882,8.235,10.882l5.587-16.784s-5.587-.882-4.7-4.7.59-10.882.59-10.882Z" transform="translate(-338.918 -292.644)" opacity="0.05"/><path d="M666.827,791.838c-3.79,5.955-9.642,2.572-10.687,1.9l.428-1.283,8.527-2.355A5.284,5.284,0,0,0,666.827,791.838Z" transform="translate(-354.824 -405.963)" opacity="0.1"/><path d="M669.771,612.517c-.292,4.12-5.295,19.117-5.295,19.117l-3.525,12.344a98.216,98.216,0,0,0-3.876,26.854,26.114,26.114,0,0,1-1.126,8.451c-2.355,6.5,2.355,15.295,2.355,15.295-4.12,7.352-11.175,2.355-11.175,2.355v-4.7s-5.587-25.587-4.12-30.589,2.057-18.532,2.057-18.532V618.694a27.7,27.7,0,0,1-8.072-17.563c-.07-.964-.124-1.976-.162-3.026-.238-6.638,4.3-14.418,6.069-17.19.428-.671.693-1.045.693-1.045l25.987,10.287h.06v3.232Z" transform="translate(-345.965 -309.552)" fill="#474463"/><path d="M670.167,468.387a16.577,16.577,0,0,0-1.792,4.25,11.51,11.51,0,0,1-8.949-.325,14.4,14.4,0,0,0-2.5-5.982Z" transform="translate(-355.186 -257.483)" opacity="0.1"/><circle cx="11.472" cy="11.472" r="11.472" transform="translate(297.624 192.372)" fill="#db8b8b"/><path d="M674.012,593.4h-.125c-12.333,2.534-27.817-10.319-27.817-10.319a15.243,15.243,0,0,0,1.083-2.166c.428-.671.693-1.045.693-1.045l25.987,10.287.065,1.029Z" transform="translate(-350.206 -309.552)" opacity="0.1"/><path d="M660.809,488.744s-16.469-10-21.764-5.885l-7.352,9.41s-4.7,1.473-3.822,10.882l-3.53,17.06,10.59,2.647s6.177,5.885,1.175,14.412c0,0,15.587,12.94,27.942,10.287l-.909-13.811a17.907,17.907,0,0,1,2.057-14.7c4.7-7.06.292-13.822-4.12-16.47C661.107,502.571,659.044,491.391,660.809,488.744Z" transform="translate(-340.24 -264.608)" fill="#cbcdda"/><path d="M690.772,605.4s6.177,1.175,9.117,5.885a18.329,18.329,0,0,0,3.081,3.844,2.333,2.333,0,0,1-.363,3.719c-2.333,1.4-6.14,2.268-10.947-1.684C683.42,610.4,690.772,605.4,690.772,605.4Z" transform="translate(-369.321 -321.26)" fill="#db8b8b"/><path d="M666.766,504.713s-5.885-.59-7.352,14.7-3.822,18.825-3.822,18.825-1.473,7.942,2.057,12.647,10.287,14.7,10.287,14.7,7.352,2.057,8.825-5.295l-9.117-17.06s-1.473-5.885,2.057-10S675.884,501.767,666.766,504.713Z" transform="translate(-354.433 -274.984)" opacity="0.1"/><path d="M667.857,503.083s-5.885-.59-7.352,14.7-3.822,18.825-3.822,18.825-1.473,7.942,2.057,12.647,10.287,14.7,10.287,14.7,7.352,2.057,8.825-5.295l-9.117-17.06s-1.467-5.88,2.057-9.978S676.974,500.138,667.857,503.083Z" transform="translate(-354.933 -274.237)" fill="#cbcdda"/><path d="M683.115,523.64s.59,9.117-2.057,14.12-2.647,11.472,0,15" transform="translate(-365.34 -283.765)" opacity="0.1"/><path d="M673.315,498.763s-2.355-2.355-9.117-2.647-9.707-2.355-9.707-2.355" transform="translate(-354.067 -270.063)" opacity="0.1"/><path d="M643.412,429.425c-1.787.222-3.828.834-4.472,2.512a17.7,17.7,0,0,0-.406,1.938c-.666,2.572-3.557,3.79-5.344,5.728a13.683,13.683,0,0,0-2.783,6.367,59.817,59.817,0,0,0-1.034,19.983c.574,4.873,1.749,9.68,2.074,14.58s-.271,10.054-2.951,14.169c-1.153,1.77-2.669,3.324-3.487,5.273,1.689,1.37,4.012,1.565,6.188,1.624q3.79.13,7.58,0a8.09,8.09,0,0,0,3.86-.8,5.954,5.954,0,0,0,2.025-2.166,15.536,15.536,0,0,0,1.749-8.256c-.065-2.842-.514-5.679-.541-8.533a7.464,7.464,0,0,1,.985-4.472,14.294,14.294,0,0,1,2.463-2.279c3.151-2.788,4.228-7.266,4.331-11.472s-.59-8.419-.233-12.609c.141-1.624.753-3.611,2.366-3.931a9.1,9.1,0,0,0,1.538-.195c1.294-.5,1.169-2.323,1.538-3.66.417-1.5,1.695-2.658,2.057-4.174.845-3.557-3.682-7.807-6.648-9.047C651.219,428.732,646.617,429.041,643.412,429.425Z" transform="translate(-340.548 -240.405)" opacity="0.1"/><path d="M642.912,428.334c-1.787.222-3.828.834-4.472,2.512a17.733,17.733,0,0,0-.406,1.938c-.666,2.572-3.557,3.79-5.344,5.728a13.683,13.683,0,0,0-2.783,6.367,59.815,59.815,0,0,0-1.034,19.983c.574,4.873,1.749,9.68,2.074,14.58S630.677,489.5,628,493.611c-1.153,1.77-2.669,3.324-3.487,5.273,1.689,1.37,4.012,1.565,6.188,1.624q3.79.13,7.58,0a8.091,8.091,0,0,0,3.86-.8,5.956,5.956,0,0,0,2.025-2.166,15.537,15.537,0,0,0,1.749-8.256c-.065-2.842-.514-5.679-.541-8.533a7.465,7.465,0,0,1,.985-4.472A14.3,14.3,0,0,1,648.819,474c3.151-2.788,4.228-7.266,4.331-11.472s-.59-8.419-.233-12.609c.141-1.624.753-3.611,2.366-3.931a9.1,9.1,0,0,0,1.538-.195c1.294-.5,1.169-2.323,1.538-3.66.417-1.5,1.695-2.658,2.057-4.174.845-3.557-3.682-7.807-6.648-9.047C650.7,427.641,646.1,427.944,642.912,428.334Z" transform="translate(-340.318 -239.903)" fill="#472727"/></g></svg>